/* XPM */
static char *MA__[] = {
/* columns rows colors chars-per-pixel */
"64 64 6 1 ",
"  c #210400",
". c #291000",
"X c #211808",
"o c #311400",
"O c #311C08",
"+ c #4A2000",
/* pixels */
"OooOOOOOOOOOOOOOOOOOOOO..ooOOOOOOOOOOO....OOOO....OOOooOOOOOOOOO",
"OooOOOOOOOOOOOOOOOOOOOO..ooOOOOOOOOOOO....OOOO....OOOooOOOOOOOOO",
".OO..OOOOOOO..OOOO..ooo..OOOOOOOO.....oo......oo.....OO..OOOOOO.",
".OO..OOOOOOO..OOOO..ooo..OOOOOOOO.....oo......oo.....OO..OOOOOO.",
"OOOOO++OOOooOOOOoo..OOOOOOOOOooOOoo.......oo......OOOOOOO++OOooO",
"OOOOO++OOOooOOOOoo..OOOOOOOOOooOOoo.......oo......OOOOOOO++OOooO",
".....OOOOOOO........OOOOOOO..OOooOOOOO....OOOO...........OOOOOO.",
".....OOOOOOO........OOOOOOO..OOooOOOOO....OOOO...........OOOOOO.",
".....oo.......OO....OOOOOoo++OO..OO+++....OO++...........oo.....",
".....oo.......OO....OOOOOoo++OO..OO+++....OO++...........oo.....",
"OOOOOOOOOOooOOooOOOOOOO..OOOOOOOOOOOOOOOOOOOOOOOOOOOOOOOOOOOOooO",
"OOOOOOOOOOooOOooOOOOOOO..OOOOOOOOOOOOOOOOOOOOOOOOOOOOOOOOOOOOooO",
"...  OOOOO......  ..ooo++OO..OOOOooOOOOOOOooOOOOOO.....  OOOO...",
"...  OOOOO......  ..ooo++OO..OOOOooOOOOOOOooOOOOOO.....  OOOO...",
"O  .......OO..      OOOOOOOOOOO..OO...OOOOOO..OOOOOOO  ......OO.",
"O  .......OO..      OOOOOOOOOOO..OO...OOOOOO..OOOOOOO  ......OO.",
"...OOOOOOOOOOOOOOO..OOOooOOOO..........................OOOOOOOOO",
"...OOOOOOOOOOOOOOO..OOOooOOOO..........................OOOOOOOOO",
".ooOOOO...OOOOOO..OOOOOOOooOO..XXooOOO....ooOO.......ooOOOO..OOO",
".ooOOOO...OOOOOO..OOOOOOOooOO..XXooOOO....ooOO.......ooOOOO..OOO",
"OOOOO..OOO....OO..OO   ooOOOOOOOO.....OOOO....OOOOOOOOOOO..OO...",
"OOOOO..OOO....OO..OO   ooOOOOOOOO.....OOOO....OOOOOOOOOOO..OO...",
"OooOOOOOOOOO......OOOOO++++OOOOOOOOXXX..OOOOXX..OOOOOooOOOOOOOO.",
"OooOOOOOOOOO......OOOOO++++OOOOOOOOXXX..OOOOXX..OOOOOooOOOOOOOO.",
".......OOOOOOO.........oo++OOOOOO..OOO......OO.............OOOOO",
".......OOOOOOO.........oo++OOOOOO..OOO......OO.............OOOOO",
".oo.........OOOOOOOO...++ooOOooOO..   ......  .......oo........O",
".oo.........OOOOOOOO...++ooOOooOO..   ......  .......oo........O",
".ooOOOO.......OOOOOO...OOooOOOOXXOOOOO  ..OOOO  .....ooOOOO.....",
".ooOOOO.......OOOOOO...OOooOOOOXXOOOOO  ..OOOO  .....ooOOOO.....",
".  OO..OOOOO........OOO..OO....  .....OO......OO.....  OO..OOOO.",
".  OO..OOOOO........OOO..OO....  .....OO......OO.....  OO..OOOO.",
".oo  .......OOOOOOOO...OOOO......OOOOOOOOOOOOOOOOO...oo  ......O",
".oo  .......OOOOOOOO...OOOO......OOOOOOOOOOOOOOOOO...oo  ......O",
"OOO.............OO.....OOOO....  OOOOOOO..OOOOOO..OOOOO.........",
"OOO.............OO.....OOOO....  OOOOOOO..OOOOOO..OOOOO.........",
"O..OOOOOOOOO........oooOOOOoo.........OO......OO..OOO..OOOOOOOO.",
"O..OOOOOOOOO........oooOOOOoo.........OO......OO..OOO..OOOOOOOO.",
"...OOOOOOO..OO..OOOOOOOooOOOO  oo..OOO..OO..OO..OO.....OOOOOO..O",
"...OOOOOOO..OO..OOOOOOOooOOOO  oo..OOO..OO..OO..OO.....OOOOOO..O",
"O..OOOOOOOOOOOOOOOOOOOOooOO++OOOOOOOOOOO..OOOOOO..OOO..OOOOOOOOO",
"O..OOOOOOOOOOOOOOOOOOOOooOO++OOOOOOOOOOO..OOOOOO..OOO..OOOOOOOOO",
"O..OOOOOOOOO..OO....oooOOOOOOOO++OOOOO..OOOOOO..OOOOO..OOOOOOOO.",
"O..OOOOOOOOO..OO....oooOOOOOOOO++OOOOO..OOOOOO..OOOOO..OOOOOOOO.",
"OOOOO.....OO...........OO++..oo..OO...OO..OO..OO..OOOOOOO....OO.",
"OOOOO.....OO...........OO++..oo..OO...OO..OO..OO..OOOOOOO....OO.",
"...OO.......OOOO..OO...OOOO..OOOOOO.......OO...........OO......O",
"...OO.......OOOO..OO...OOOO..OOOOOO.......OO...........OO......O",
"OooOOOOOOOOOOOOOOOOOOOO..ooOOOOOOOOOOO....OOOO....OOOooOOOOOOOOO",
"OooOOOOOOOOOOOOOOOOOOOO..ooOOOOOOOOOOO....OOOO....OOOooOOOOOOOOO",
".OO..OOOOOOO..OOOO..ooo..OOOOOOOO.....oo......oo.....OO..OOOOOO.",
".OO..OOOOOOO..OOOO..ooo..OOOOOOOO.....oo......oo.....OO..OOOOOO.",
"OOOOO++OOOooOOOOoo..OOOOOOOOOooOOoo.......oo......OOOOOOO++OOooO",
"OOOOO++OOOooOOOOoo..OOOOOOOOOooOOoo.......oo......OOOOOOO++OOooO",
".....OOOOOOO........OOOOOOO..OOooOOOOO....OOOO...........OOOOOO.",
".....OOOOOOO........OOOOOOO..OOooOOOOO....OOOO...........OOOOOO.",
".....oo.......OO....OOOOOoo++OO..OO+++....OO++...........oo.....",
".....oo.......OO....OOOOOoo++OO..OO+++....OO++...........oo.....",
"OOOOOOOOOOooOOooOOOOOOO..OOOOOOOOOOOOOOOOOOOOOOOOOOOOOOOOOOOOooO",
"OOOOOOOOOOooOOooOOOOOOO..OOOOOOOOOOOOOOOOOOOOOOOOOOOOOOOOOOOOooO",
"...  OOOOO......  ..ooo++OO..OOOOooOOOOOOOooOOOOOO.....  OOOO...",
"...  OOOOO......  ..ooo++OO..OOOOooOOOOOOOooOOOOOO.....  OOOO...",
"O  .......OO..      OOOOOOOOOOO..OO...OOOOOO..OOOOOOO  ......OO.",
"O  .......OO..      OOOOOOOOOOO..OO...OOOOOO..OOOOOOO  ......OO."
};
