/* XPM */
static char *V2FsbA__[] = {
/* columns rows colors chars-per-pixel */
"64 64 204 2 ",
"   c #0D0407",
".  c #080408",
"X  c #130405",
"o  c #1B0403",
"O  c #220500",
"+  c #280700",
"@  c #250B01",
"#  c #2C0B00",
"$  c #340E00",
"%  c #380F00",
"&  c #251505",
"*  c #2B1201",
"=  c #251807",
"-  c #2E1906",
";  c #2D1A08",
":  c #241808",
">  c #321501",
",  c #391100",
"<  c #311A06",
"1  c #3C1C04",
"2  c #321C08",
"3  c #3A1E08",
"4  c #37200B",
"5  c #3C210C",
"6  c #3D2511",
"7  c #392C14",
"8  c #3C3119",
"9  c #441E01",
"0  c #481F00",
"q  c #442106",
"w  c #4B2304",
"e  c #43240B",
"r  c #4B260B",
"t  c #4A2A0E",
"y  c #43280D",
"u  c #512707",
"i  c #512806",
"p  c #502708",
"a  c #532A0B",
"s  c #582B09",
"d  c #56310E",
"f  c #59320D",
"g  c #432610",
"h  c #462813",
"j  c #4C2C14",
"k  c #4B2F19",
"l  c #4C2514",
"z  c #532E13",
"x  c #413117",
"c  c #4A331C",
"v  c #543013",
"b  c #5B3313",
"n  c #5F3912",
"m  c #54321A",
"M  c #5E361A",
"N  c #5A351C",
"B  c #5B391E",
"V  c #533A18",
"C  c #62300F",
"Z  c #613414",
"A  c #693717",
"S  c #6C3612",
"D  c #623C14",
"F  c #623A1C",
"G  c #693A1A",
"H  c #643A18",
"J  c #723611",
"K  c #743910",
"L  c #7D3A14",
"P  c #552D23",
"I  c #593720",
"U  c #5D3B22",
"Y  c #543A21",
"T  c #623D23",
"R  c #603F28",
"E  c #653C34",
"W  c #653A38",
"Q  c #664116",
"!  c #654118",
"~  c #6C4519",
"^  c #684216",
"/  c #74451C",
"(  c #744C1D",
")  c #794B1C",
"_  c #7E441E",
"`  c #6F561A",
"'  c #71551C",
"]  c #5F4025",
"[  c #664125",
"{  c #694226",
"}  c #664229",
"|  c #6A4428",
" . c #6B4529",
".. c #6F492E",
"X. c #734525",
"o. c #744C26",
"O. c #744A2B",
"+. c #7A4D2C",
"@. c #755324",
"#. c #7A5224",
"$. c #7E522D",
"%. c #7C5927",
"&. c #6D4F37",
"*. c #764E32",
"=. c #754D31",
"-. c #6E5038",
";. c #775135",
":. c #7B5235",
">. c #72543C",
",. c #7D5539",
"<. c #7E593A",
"1. c #7E5C36",
"2. c #765A42",
"3. c #7A5F48",
"4. c #823E14",
"5. c #8D481B",
"6. c #83461A",
"7. c #944C1B",
"8. c #824A21",
"9. c #884E26",
"0. c #855C25",
"q. c #81542F",
"w. c #835E2C",
"e. c #8A5526",
"r. c #925423",
"t. c #9B5625",
"y. c #9E5B26",
"u. c #945B29",
"i. c #99592D",
"p. c #985729",
"a. c #835531",
"s. c #8A5630",
"d. c #815B35",
"f. c #8B5D35",
"g. c #835639",
"h. c #855B3D",
"j. c #8A5E3F",
"k. c #A35B26",
"l. c #A35C2B",
"z. c #AB5C29",
"x. c #8B602A",
"c. c #9C652E",
"v. c #90652D",
"b. c #876130",
"n. c #8A6439",
"m. c #996D31",
"M. c #956835",
"N. c #9C7235",
"B. c #9F7238",
"V. c #AB642C",
"C. c #A86B2C",
"Z. c #B2642D",
"A. c #A16632",
"S. c #B46830",
"D. c #A77838",
"F. c #AA7A39",
"G. c #A37536",
"H. c #BF7132",
"J. c #C37736",
"K. c #C67837",
"L. c #8B5D40",
"P. c #8F6344",
"I. c #946445",
"U. c #996748",
"Y. c #9C6B4B",
"T. c #976A49",
"R. c #A06F4E",
"E. c #A67D44",
"W. c #A0714F",
"Q. c #BC7943",
"!. c #A47451",
"~. c #AB833F",
"^. c #B3823D",
"/. c #AE8848",
"(. c #B78640",
"). c #B98740",
"_. c #B38A44",
"`. c #BC8A42",
"'. c #BD8C49",
"]. c #BF934C",
"[. c #AE8D58",
"{. c #B78252",
"}. c #BD9750",
"|. c #AF9267",
" X c #AE9369",
".X c #C68845",
"XX c #D48B43",
"oX c #DC8C43",
"OX c #C6994C",
"+X c #DC954A",
"@X c #D8944A",
"#X c #C48F5A",
"$X c #C39C52",
"%X c #D99E51",
"&X c #E18E45",
"*X c #E6974B",
"=X c #E09046",
"-X c #C7A356",
";X c #CAA557",
":X c #CEA959",
">X c #D4A456",
",X c #D4A557",
"<X c #C6A164",
"1X c #C5A472",
/* pixels */
"* @ - < < - * * * * * - ; < 2 2 2 ; 2 2 < 2 < < 2 < * * * - ; 2 2 < 2 < 2 2 2 2 2 2 2 2 2 - * - < ; 2 - - < - @ * * - < < 2 2 ; ",
"* * * - - - * @ * @ * - - < 2 ; 2 2 < - - - - & ; < * * * - < 2 2 2 2 ; 2 2 2 ; ; < 2 2 ; - - ; < 2 < - & < - * @ * - - - 2 ; - ",
"- * * * @ * @ * * * * * * - 2 2 2 2 - * * * * * * > * * < 2 2 2 2 < < 2 2 2 2 2 < < 2 2 < < 2 < 2 2 2 < - < - * * * * * - < - * ",
"* * * @ * * @ @ O @ * @ * * * - * * * * * - - - > - & & - - - 2 ; - * - - & - > - - < ; - * - - 2 2 2 ; < - & @ * @ @ * @ - * @ ",
"* * * * * @ O O # * > > * - > * > * * * - 2 - 2 > > & : - & * < < * * @ * * * > * * < - * * * - ; < < < < * * * * * @ * * * * @ ",
"- - - - - @ O , r w w r w w r w u r 9 @ - 2 2 2 < - * * : & @ # * O @ * * - - > < - < 2 - - @ - * * * * * * * * @ O O O @ @ * * ",
"- 2 - - * - > r b F H b b M G H Z u 0 > e r r l t t e e g e 9 3 < > > 1 1 1 1 > < 2 2 2 < - @ # * @ * * @ * * * @ @ @ O @ * * @ ",
"* 2 - * @ > u M  .+.:. .| +.a.a.+.u 0 w Z G A A A A A A A A G N z a a p p u r 2 2 2 2 < - - @ O o @ * @ * < 2 2 * * * @ * @ * * ",
"- < - * > 2 u M  .T U m m } +.{ { D f Z X.X.z r l a r a r l j ..:.*.:.*.=.b 0 3 3 r 9 e w 9 1 9 , 9 e 9 9 r e - * O @ * - - - - ",
"* < - * - 3 p N { j 2 2 ; m { v a ! G A +.o.3 @ * @ * # @ # 4 ,.L.h.L.h.g.M l 3 j m z a z u 0 u w u u a a d t 5 < @ * @ * - < < ",
"* < - @ - 5 z z z 9 - * * 3 g 4 3 g g 9 e e @ O O O O O O O @ h k c m F F a b R &.2. .X.q./ F D ^ D p F { +.O.[ m r > * * * - < ",
"* - * * < g N m a 1 > @ @ * - - * ; ; > # + + + + + + + + # + + * < 5 r l 0 z R &.2.} T O.T Z n D f r N T O.O.| Z p > - * * - 2 ",
"> @ # * w z { T m 5 < O O O O O O O O O $ % % % % % % % % % % + @ 2 2 2 2 2 e m m m 6 3 4 4 3 3 4 2 2 4 3 3 k { M p 4 2 & @ < < ",
"# @ @ * r M O.{ z 1 - @ o # $ # # # $ # # # # + $ # $ + # $ % $ # * & * * * - 5 3 6 < - - & * & & - - > - - y N N a 4 ; - * ; < ",
"* > > - j B a.X.u 1 * O O # % % % % % % + O O O O O O O O # % $ % O O O + O O o # * @ @ @ # O @ @ * * @ * > 1 p z m 4 3 - * - < ",
"* < < < U ..I.g.a 1 - * @ $ % # + + + + O O O o o X o o X o + + + % % $ $ $ # + O O O @ @ O O O @ @ * @ @ < 5 z B T z w q * @ @ ",
"* < < 2 T *.U.g.a 5 2 * @ > % # + O O O o o o o X   o o . X o O + $ $ $ $ $ $ + + + + + + + + O O O @ @ O < 5 v [ ..m a e * @ @ ",
"> < > * U *.U.g.m 5 - O O # % % $ O O O X       . . . . . . X o O O o     O + $ % % % $ % % % O O O O O O > 1 p X.q.M z l @ * > ",
"> - - - T *.Y.h.a 3 - O O $ % % $ O + # o X   . X X   . . . . X X o X o o o O # # + # $ $ $ % $ # + o O @ > 3 a +.j.{ T m & > < ",
"> > * > U ;.W.h.w > @ O O # % % $ O # % + o     o o   . . . . . . . X O o   X o X   o O O # % % % $ O # # 2 3 p g.U.=. .I 3 2 < ",
"# > < 2 m } P.;.0 > @ O O # % % % O O O o X o o X   . . . . . . . . .     .         o O O + + $ , % $ # O < 3 m g.U.*.| B - - < ",
"* > 2 2 h I g...w 1 * @ O # % % $ O O o X X o o   . . . . . . . . . . . . . . . .   o O o O O $ % % % + O < e z h.U.*. .I * - < ",
"2 2 2 2 * ; 6 g i 5 - @ @ # O % $ O o   o o X   . . . . . . . . . . . . . . . . .   o o   o O $ , $ O O # 9 0 u h.W.;. .m * * > ",
"2 2 2 ; # @ - 9 w q 1 * * @ O % % O o X o X   . . . . . . . . . . . . . . . . . .   o o X X o $ % % # O O 1 9 0 g.U...T m - > > ",
"2 2 2 ; * * 2 1 w w 9 * * @ O % $ O O O     . . . . . . . . . . . . . . . . . . . . .   O X X $ % % , # O @ > w *.L.U m h 2 > > ",
"< > < 2 * * * < 1 w w > @ @ O % $ O o X . . . . . . . . . . . . . . . . . . . . . . . . X o o $ % % # # @ - 1 w [ ..j 2 2 2 < 2 ",
"< > < < * * > > 5 a z > * @ O $ $ O o     . . . . . . . . . . . . . . . . . . . . . .     o O % % $ O @ - > l M [ { 5 * * 2 2 2 ",
"2 - - * < 2 9 r m O.O.3 @ @ O $ $ X X o   . . . . . . . . . . . . . . . . . . . . . .   o O O % % $ O @ * 9  .R.h.} 5 * - 2 2 2 ",
"- - * @ - > 1 a U ;.;.5 * O O % $   X o   . . . . . . . . . . . . . . . . . . . . . .   o o O $ % $ O @ * 0  .R.h.{ 5 * * 2 < < ",
"- * @ O * * > m  .2.2.7 * @ O $ $   . . . . . . . . . . . . . . . . . . . . . . . . . . . o O $ % $ O @ > 9 T U.g.} 5 * * 2 - > ",
"* - - # * * 9 P E g.1.5 * @ O % $   . . X X   . . . . . . . . . . . . . . . . . . . . . .   o $ % % @ - 2 l N O. .{ 5 # * - @ # ",
"* 2 > - * * 0 P W d.b.5 * @ @ % $   . . O o   . . . . . . . . . . . . . . . . . . . . .   .   # % > @ - 2 j z a T } 3 > * @ @ O ",
"* < > > * > 9 P E d.w.v u 1 @ $ $   .   o o   . . . . . . . . . . . . . . . . . . . .   o X .   X @ $ - > r H d.*.W l 9 1 * * > ",
"* - - * @ # 9 P } g.d.b p q # $ $   . . o X . . . . . . . . . . . . . . . . . . . . .   o X . .   O % # $ r ! n.;.E l 9 , * * # ",
"- * @ O * * > m ..2.2.m p 9 O $ $ .   .   . . . . . . . . . . . . . . . . . . . . . . . . . . .   o % # # r R 3.-.} 5 > * * @ O ",
"< - * @ - > 9 j T >.,.j 5 > + $ $     o   . . . . . . . . . . . . . . . . . . . . . . . . X o     O % # O 3 I g...N r 9 1 < @ @ ",
"2 < - * 2 2 0 l z O.+.6 2 * O $ $   X O   . . . . . . . . . . . . . . . . . . . . . . . . o O     o , # O 2 m :.T j w 9 9 < - @ ",
"< - > - * * > > 4 z d 2 2 & O $ $ O X   . . . . . . . . . . . . . . . . . . . . . . . . .     o o # , # O 2 e C j 3 > - * * < < ",
"2 > < 2 * * * < 9 0 p < * # + $ # O o X . . . . . . . . . . . . . . . . . . . . . . . . .   X o o + $ # # ; 3 l q 1 - * * * - < ",
"2 2 < ; * * 2 3 0 0 9 + O $ % + O   X O . . . . . . . . . . . . . . . . . . . . . . . . . X O X   X o $ $ + # 0 0 w 1 < & * - < ",
"2 2 2 2 * # - e u 9 1 @ O # % O o o X X o X . . . . . . . . . . . . . . . . . . . . . . X o X X o o O $ % O @ 1 w w 3 2 - @ ; 2 ",
"< 2 2 2 * & 6 g i 5 - O o $ % + O O o . O o X . . . . . . . . . . . . . . . . . . .     O X   O O o O # % # @ 2 q u h 7 4 @ * 2 ",
"* > > 2 h I ,...w , * O O $ % + O O O o X X O o X . . . . . . . . . . . . . . . .   o o   o o + O O O $ % O @ * 9 a :.<...j 6 2 ",
"- * > 2 m } I.;.0 < * O O + % + O o O + X X o o o     . . . . . . . . . . . . .     o o   O + O O o O $ % + O * 1 a L.I.L.I g < ",
"> > * > U ;.W.h.r 1 > O O # % + O O # $ + O . . o o   . . . . . . . . . . . . . o O     O # % + O o O # % O # 2 9 z Y.!.L. .k @ ",
"> > - > U *.Y.h.l 4 2 O O # % + O O + # O X . . X X   . . . . X X X X . . . . .   X     X + # O O O O $ % + & 2 e N U.R.L. .k * ",
"> 2 - * T *.U.g.m e 2 O O # % + O O O O X . .   . .     .   X O o O o     . . .   . . . . X O O O O O # % O # 2 g I P.U.L.| h * ",
"* - 2 2 T *.U.g.l 5 2 + O # % O O O O O     o O X . o o o + $ $ $ $ $ $ $ O o O X   o o . o O O O O O $ % O @ < e M P.Y.L.| k - ",
"* < - 3 U O.I.:.u 3 - O O # $ + O O O O X   o o o   O + O $ $ $ $ % % $ $ + O O o   o o   o O O O O + # > O @ 2 r b j.U.h.T j 2 ",
"* > * * j B a.O.a 9 - @ O O + $ % O O o       . o o o + % # O O O O O O + $ $ O O O   . . X O O O + % + O O @ 2 r a :.a.O.b 5 @ ",
"* @ @ - r N O.{ z 5 - O O O @ $ % # $ # + # @ + # # # # # # O * * & # O O + # # # # # @ + + # # # # % # O O @ 2 t z O.+.{ z 3 * ",
"> O # * w z { T m 5 - O O @ * @ @ % % % % % % % % % % $ O O O - ; 2 # O O O # % % % % % % $ % % % % * @ * O * 2 g m } { F p 1 # ",
"* - * * 2 t N m z 1 > @ * * - @ O # O + @ # + # + + # O O # - @ @ @ ; ; ; O O @ + + + + @ # + # + + O - - @ * > r a m N m 5 > * ",
"* < * * - 3 j z z 9 < y g 6 4 * @ @ @ @ O O O @ + + O O O & < - # $ * 2 - @ O O + @ @ @ @ o O @ @ @ O < 5 g 5 > r v z m g 2 - @ ",
"2 2 - * - 1 w N { j h +.q.{ k 5 ; < < ; : = < < ; 2 # @ : ; 2 w u r e 2 - : & # * 2 2 ; : - 2 < < 2 2 l N +.X.4 m [ a w q < - @ ",
"2 2 - @ & < y m | T [ #.%.s.u.b r > < < 1 2 2 2 2 2 6 6 6 6 h S K J C g g 6 6 6 4 2 2 2 1 < < < < 1 r #.u.%.o.T [ | j y 4 - * * ",
"< < - * * - 8 Y | $.a.' ` C.K.6.a 1 > > 9 0 2 2 2 3 j m N I U 5.7.7.X.T B B m v g 2 2 1 w 1 > , , 9 b V.K.' #.q.+.} c 8 7 * @ * ",
"4 q , * * 4 U } | p.l.k.y.V.Z.s.o.! f w w w w r q q z #.~.[.|.Q.J.J.{. X|./.N.B r 9 r w 0 w w n F ~ +.l.S.V.k.l.q.| [ R c * * * ",
"1 q 1 @ > e } { { t.z.z.z.z.l.M.M.%.' ( s i i p w w b w.OX<X1X.XJ.J.#X1X1X$X_.F a w i a u f ~ %.w.b.M.A.z.V.z.z.9.{ {  .B > * @ ",
"< > > # * 5 [ T N p.z.z.z.i.f.$X-X-XOX^.0.D s p a s 6.A.;X$X`.x.) ) A.'.OX:X}.5.K i a f ^ m.).$X-X;X-XE.e.z.z.z.8.N { | B > * * ",
"1 > > - 1 r [ T m 5.t.z.z.i.f.$X:X>XOX`.N.x.D f a v 4.c.OX`.D.v.e.e.c.G.D.OX'.5.S j f ~ v.F.`.%X>X>X,XE.s.l.z.t./ m | | F 1 > * ",
"9 > > < 9 t { T m G ) k.z.i.f.$X,X*XoX^.^.^.( ~ V x J r.^.m.( V.S.S.u./ ( ^.F.L b x ! 0.`.`.`.+X*X%X,XE.s.z.t.~ F m [ | T 0 1 2 ",
", > > > > t | U a ! ) z.z.i.f.$X,X=X@X`..X^.( ~ b r C e.`.m./ k.Z.Z.r.~ #.^.D.S a t Q 0.).`.`.oX&X%X:X/.q.z.t./ n z { | B , > < ",
"> > - > * 5 } F a D / z.z.i.f.$X,XoX.X.X^.^.' ~ f w a #.^.m.~ k.z.z.r.~ ( ^.D.n i w Q 0.`.`..XXXoX@X;XE.s.z.t.~ n a [  .B * * > "
};
