/* XPM */
static char *_06d3a2f542f4de3d94e2fa9c8936bf44bxt4nos1dLZz9tu[] = {
/* columns rows colors chars-per-pixel */
"138 115 18 1 ",
"  c #5A1400",
". c #5A2C08",
"X c #632400",
"o c #733800",
"O c #633C10",
"+ c #844910",
"@ c #8C5918",
"# c #845921",
"$ c #9C6929",
"% c #8C6531",
"& c #9C7539",
"* c #A57931",
"= c #A5864A",
"- c #B58A42",
"; c #BD9652",
": c #B5965A",
"> c #CEA663",
", c #D6B673",
/* pixels */
";,,;;***;;@@$$$$*****,,****$$;;*****@@%%$$;;;;%%###;;,,;;**;;@@@$$$$****,,*****$$;;****@@%%$$$;;;;%%##;;,,,;;**;;@@$$;;>>>**;;$$,,****###O",
">@@##@@@;;;;;;;;##,,,****@@::--@@;;;****@@;;;;**###>>@@##@@;;;;;;;;;##,,****@@@::--@@;;****@@@;;;;**##>>@@@##@@;;;;;;;;ooo$$;;;;%%##,,****",
">@@##@@@;;;;;;;;##,,,****@@::--@@;;;****@@;;;;**###>>@@##@@;;;;;;;;;##,,****@@@::--@@;;****@@@;;;;**##>>@@@##@@;;;;;;;;ooo$$;;;;%%##,,****",
"$%%&&>>>&&>>**;;**;;;##;;,,;;**;;***##;;>>&&>>;;:::$$%%&&>>&&>>>**;;**;;##;;,,,;;**;;**##;;>>>&&>>;;::$$%%%&&>>&&>>**oo***********@@%%###;",
"$%%&&>>>&&>>**;;**;;;##;;,,;;**;;***##;;>>&&>>;;:::$$%%&&>>&&>>>**;;**;;##;;,,,;;**;;**##;;>>>&&>>;;::$$%%%&&>>&&>>**oo***********@@%%###;",
"&;;**;;;;;&&$$**$$;;;$$;;$$oo@@$$,,,;;;;$$--**--:::&&;;**;;;;&&&$$**$$;;$$;;$$$oo@@$$,,;;;;$$$--**--::&&;;;**;;;;&&$$**;;;$$,,$$++%%--$$$;",
"&;;**;;;;;&&$$**$$;;;$$;;$$oo@@$$,,,;;;;$$--**--:::&&;;**;;;;&&&$$**$$;;$$;;$$$oo@@$$,,;;;;$$$--**--::&&;;;**;;;;&&$$**;;;$$,,$$++%%--$$$;",
"&***********;;@@::--->>%%;;**;;$$%%%##@@;;**;;=====&&***********;;@@::-->>%%;;;**;;$$%%##@@;;;**;;====&&***********;;;;$$$;;$$;;;;++==>>>#",
"&***********;;@@::--->>%%;;**;;$$%%%##@@;;**;;=====&&***********;;@@::-->>%%;;;**;;$$%%##@@;;;**;;====&&***********;;;;$$$;;$$;;;;++==>>>#",
"@::**;;;$$,,**,,;;***====&&**@@;;;;;,,****$$;;*****@@::**;;$$,,,**,,;;**====&&&**@@;;;;,,*****$$;;****@@:::**;;$$,,**$$,,,****@@::--**===O",
"@::**;;;$$,,**,,;;***====&&**@@;;;;;,,****$$;;*****@@::**;;$$,,,**,,;;**====&&&**@@;;;;,,*****$$;;****@@:::**;;$$,,**$$,,,****@@::--**===O",
";oo$$;;;;;%%;;$$oo@@@****@@::--@@;;;%%##;;$$;;--$$$;;oo$$;;;;%%%;;$$oo@@****@@@::--@@;;%%##;;;$$;;--$$;;ooo$$;;;;%%;;;;%%%##;;,,;;**,,****",
";oo$$;;;;;%%;;$$oo@@@****@@::--@@;;;%%##;;$$;;--$$$;;oo$$;;;;%%%;;$$oo@@****@@@::--@@;;%%##;;;$$;;--$$;;ooo$$;;;;%%;;;;%%%##;;,,;;**,,****",
"o***********;;;;**;;;##;;,,;;**;;*****@@%%**==**@@@oo***********;;;;**;;##;;,,,;;**;;****@@%%%**==**@@oo***********;;*****@@%%++::--%%###;",
"o***********;;;;**;;;##;;,,;;**;;*****@@%%**==**@@@oo***********;;;;**;;##;;,,,;;**;;****@@%%%**==**@@oo***********;;*****@@%%++::--%%###;",
"*;;$$,,,$$++;;&&**@@@====&&**@@;;;;;**;;$$,,****>>>**;;$$,,$$+++;;&&**@@====&&&**@@;;;;**;;$$$,,****>>**;;;$$,,$$++;;*****;;;;$$--****@@@.",
"*;;$$,,,$$++;;&&**@@@====&&**@@;;;;;**;;$$,,****>>>**;;$$,,$$+++;;&&**@@====&&&**@@;;;;**;;$$$,,****>>**;;;$$,,$$++;;*****;;;;$$--****@@@.",
";$$;;$$$;;;;&&@@::---****@@::--@@;;;$$;;;;%%##**+++;;$$;;$$;;;;;&&@@::--****@@@::--@@;;$$;;;;;%%##**++;;$$$;;$$;;;;&&**$$$##@@;;**;;**>>>*",
";$$;;$$$;;;;&&@@::---****@@::--@@;;;$$;;;;%%##**+++;;$$;;$$;;;;;&&@@::--****@@@::--@@;;$$;;;;;%%##**++;;$$$;;$$;;;;&&**$$$##@@;;**;;**>>>*",
"%##;;,,,;;**;;::--%%%##;;,,;;**;;*******@@%%$$;;;;;%%##;;,,;;***;;::--%%##;;,,,;;**;;******@@@%%$$;;;;%%###;;,,;;**;;;;;;;%%##;;,,;;**;;;$",
"%##;;,,,;;**;;::--%%%##;;,,;;**;;*******@@%%$$;;;;;%%##;;,,;;***;;::--%%##;;,,,;;**;;******@@@%%$$;;;;%%###;;,,;;**;;;;;;;%%##;;,,;;**;;;$",
";*******;;;;$$--*****@@oo****$$;;;;;++==>>;;****;;;;;******;;;;;$$--****@@oo*****$$;;;;++==>>>;;****;;;;*******;;;;$$*******@@%%++::--@@@;",
";*******;;;;$$--*****@@oo****$$;;;;;++==>>;;****;;;;;******;;;;;$$--****@@oo*****$$;;;;++==>>>;;****;;;;*******;;;;$$*******@@%%++::--@@@;",
"*++*********++**;;***>>**;;$$****+++********++$$*****++*********++**;;**>>**;;;$$****++*********++$$****+++********++,,$$$++%%--$$;;$$>>>&",
"*++*********++**;;***>>**;;$$****+++********++$$*****++*********++**;;**>>**;;;$$****++*********++$$****+++********++,,$$$++%%--$$;;$$>>>&",
",;;@@---**;;$$$$;;*******$$;;****@@@%%$$;;;;%%##;;;,,;;@@--**;;;$$$$;;******$$$;;****@@%%$$;;;;;%%##;;,,;;;@@--**;;$$--;;;;;++==>>%%;;;;;;",
",;;@@---**;;$$$$;;*******$$;;****@@@%%$$;;;;%%##;;;,,;;@@--**;;;$$$$;;******$$$;;****@@%%$$;;;;;%%##;;,,;;;@@--**;;$$--;;;;;++==>>%%;;;;;;",
"*;;%%>>>**;;;;$$;;;;;******&&====;;;**;;@@##%%$$;;;**;;%%>>**;;;;;$$;;;;*******&&====;;**;;@@@##%%$$;;**;;;%%>>**;;;;*****++**>>>>**::****",
"*;;%%>>>**;;;;$$;;;;;******&&====;;;**;;@@##%%$$;;;**;;%%>>**;;;;;$$;;;;*******&&====;;**;;@@@##%%$$;;**;;;%%>>**;;;;*****++**>>>>**::****",
"*&&=====++;;$$@@=====;;**::@@****;;;$$****,,;;;;@@@**&&====++;;;$$@@====;;**:::@@****;;$$*****,,;;;;@@**&&&====++;;$$--;;;@@**;;**$$;;;;;$",
"*&&=====++;;$$@@=====;;**::@@****;;;$$****,,;;;;@@@**&&====++;;;$$@@====;;**:::@@****;;$$*****,,;;;;@@**&&&====++;;$$--;;;@@**;;**$$;;;;;$",
":@@*****$$;;;;>>*****;;$$oo;;$$--;;;$$;;##%%;;@@---::@@****$$;;;;;>>****;;$$ooo;;$$--;;$$;;###%%;;@@--::@@@****$$;;;;**;;;@@**********;;;;",
":@@*****$$;;;;>>*****;;$$oo;;$$--;;;$$;;##%%;;@@---::@@****$$;;;;;>>****;;$$ooo;;$$--;;$$;;###%%;;@@--::@@@****$$;;;;**;;;@@**********;;;;",
";,,;;###@@;;;;****,,,******oo@@**===**%%@@****;;***;;,,;;##@@;;;;;****,,*******oo@@**==**%%@@@****;;**;;,,,;;##@@;;;;@@;;;;;**##>>@@%%****",
";,,;;###@@;;;;****,,,******oo@@**===**%%@@****;;***;;,,;;##@@;;;;;****,,*******oo@@**==**%%@@@****;;**;;,,,;;##@@;;;;@@;;;;;**##>>@@%%****",
";**##;;;>>&&>>**--%%%##;;,,;;**;;*******@@%%$$;;***;;**##;;>>&&&>>**--%%##;;,,,;;**;;******@@@%%$$;;**;;***##;;>>&&>>>>&&&>>;;::$$%%>>,,,$",
";**##;;;>>&&>>**--%%%##;;,,;;**;;*******@@%%$$;;***;;**##;;>>&&&>>**--%%##;;,,,;;**;;******@@@%%$$;;**;;***##;;>>&&>>>>&&&>>;;::$$%%>>,,,$",
"$,,;;;;;$$--*********@@oo****$$;;;;;++==>>;;**oo@@@$$,,;;;;$$---********@@oo*****$$;;;;++==>>>;;**oo@@$$,,,;;;;$$--**;;;;;&&--::&&;;,,$$$;",
"$,,;;;;;$$--*********@@oo****$$;;;;;++==>>;;**oo@@@$$,,;;;;$$---********@@oo*****$$;;;;++==>>>;;**oo@@$$,,,;;;;$$--**;;;;;&&--::&&;;,,$$$;",
"$%%##@@@;;**;;++;;*******@@;;;;**###>>******++**;;;$$%%##@@;;***;;++;;******@@@;;;;**##>>*******++**;;$$%%%##@@;;**;;*******====&&**@@****",
"$%%##@@@;;**;;++;;*******@@;;;;**###>>******++**;;;$$%%##@@;;***;;++;;******@@@;;;;**##>>*******++**;;$$%%%##@@;;**;;*******====&&**@@****",
"*@@::---;;;;**$$;;***##;;>>&&>>;;:::$$--**;;$$,,*****@@::--;;;;;**$$;;**##;;>>>&&>>;;::$$--***;;$$,,****@@@::--;;;;**;;$$$,,****@@::--+++;",
"*@@::---;;;;**$$;;***##;;>>&&>>;;:::$$--**;;$$,,*****@@::--;;;;;**$$;;**##;;>>>&&>>;;::$$--***;;$$,,****@@@::--;;;;**;;$$$,,****@@::--+++;",
";,,;;*****++;;@@;;;;;;;;;$$--**--:::&&****;;;;%%###;;,,;;****+++;;@@;;;;;;;;$$$--**--::&&*****;;;;%%##;;,,,;;****++;;;;;;;%%##;;,,;;**,,,$",
";,,;;*****++;;@@;;;;;;;;;$$--**--:::&&****;;;;%%###;;,,;;****+++;;@@;;;;;;;;$$$--**--::&&*****;;;;%%##;;,,,;;****++;;;;;;;%%##;;,,;;**,,,$",
"*@@::---;;@@%%>>=====##@@;;**;;=====&&;;++;;$$,,*****@@::--;;@@@%%>>====##@@;;;**;;====&&;;+++;;$$,,****@@@::--;;@@%%*******@@%%++::--$$$;",
"*@@::---;;@@%%>>=====##@@;;**;;=====&&;;++;;$$,,*****@@::--;;@@@%%>>====##@@;;;**;;====&&;;+++;;$$,,****@@@::--;;@@%%*******@@%%++::--$$$;",
";,,;;***;;@@$$$$*****,,****$$;;*****@@%%$$;;;;%%###;;,,;;**;;@@@$$$$****,,*****$$;;****@@%%$$$;;;;%%##;;,,,;;**;;@@$$,,$$$++%%--$$;;$$****",
";,,;;***;;@@$$$$*****,,****$$;;*****@@%%$$;;;;%%###;;,,;;**;;@@@$$$$****,,*****$$;;****@@%%$$$;;;;%%##;;,,,;;**;;@@$$,,$$$++%%--$$;;$$****",
">@@##@@@;;;;;;;;##,,,****@@::--@@;;;****@@;;;;**###>>@@##@@;;;;;;;;;##,,****@@@::--@@;;****@@@;;;;**##>>@@@##@@;;;;;;$$;;;;;++==>>%%;;+++;",
">@@##@@@;;;;;;;;##,,,****@@::--@@;;;****@@;;;;**###>>@@##@@;;;;;;;;;##,,****@@@::--@@;;****@@@;;;;**##>>@@@##@@;;;;;;$$;;;;;++==>>%%;;+++;",
"$%%&&>>>&&>>**;;**;;;##;;,,;;**;;***##;;>>&&>>;;:::$$%%&&>>&&>>>**;;**;;##;;,,,;;**;;**##;;>>>&&>>;;::$$%%%&&>>&&>>*******++**>>>>**::$$$;",
"$%%&&>>>&&>>**;;**;;;##;;,,;;**;;***##;;>>&&>>;;:::$$%%&&>>&&>>>**;;**;;##;;,,,;;**;;**##;;>>>&&>>;;::$$%%%&&>>&&>>*******++**>>>>**::$$$;",
"&;;**;;;;;&&$$**$$;;;$$;;$$oo@@$$,,,;;;;$$--**--:::&&;;**;;;;&&&$$**$$;;$$;;$$$oo@@$$,,;;;;$$$--**--::&&;;;**;;;;&&$$;;-----**--$$;;oo@@@;",
"&;;**;;;;;&&$$**$$;;;$$;;$$oo@@$$,,,;;;;$$--**--:::&&;;**;;;;&&&$$**$$;;$$;;$$$oo@@$$,,;;;;$$$--**--::&&;;;**;;;;&&$$;;-----**--$$;;oo@@@;",
"&***********;;@@::--->>%%;;**;;$$%%%##@@;;**;;=====&&***********;;@@::-->>%%;;;**;;$$%%##@@;;;**;;====&&***********;;;;$$$--****@@oo**$$$&",
"&***********;;@@::--->>%%;;**;;$$%%%##@@;;**;;=====&&***********;;@@::-->>%%;;;**;;$$%%##@@;;;**;;====&&***********;;;;$$$--****@@oo**$$$&",
"@::**;;;$$,,**,,;;***====&&**@@;;;;;,,****$$;;*****@@::**;;$$,,,**,,;;**====&&&**@@;;;;,,*****$$;;****@@:::**;;$$,,**@@;;;**;;**>>**;;;;;;",
"@::**;;;$$,,**,,;;***====&&**@@;;;;;,,****$$;;*****@@::**;;$$,,,**,,;;**====&&&**@@;;;;,,*****$$;;****@@:::**;;$$,,**@@;;;**;;**>>**;;;;;;",
";oo$$;;;;;%%;;$$oo@@@****@@::--@@;;;%%##;;$$;;--$$$;;oo$$;;;;%%%;;$$oo@@****@@@::--@@;;%%##;;;$$;;--$$;;ooo$$;;;;%%;;>>&&&$$;;**++;;$$;;;;",
";oo$$;;;;;%%;;$$oo@@@****@@::--@@;;;%%##;;$$;;--$$$;;oo$$;;;;%%%;;$$oo@@****@@@::--@@;;%%##;;;$$;;--$$;;ooo$$;;;;%%;;>>&&&$$;;**++;;$$;;;;",
"o***********;;;;**;;;##;;,,;;**;;*****@@%%**==**@@@oo***********;;;;**;;##;;,,,;;**;;****@@%%%**==**@@oo***********;;;;;;;$$;;;;;;$$;;@@@$",
"o***********;;;;**;;;##;;,,;;**;;*****@@%%**==**@@@oo***********;;;;**;;##;;,,,;;**;;****@@%%%**==**@@oo***********;;;;;;;$$;;;;;;$$;;@@@$",
"*;;$$,,,$$++;;&&**@@@====&&**@@;;;;;**;;$$,,****>>>**;;$$,,$$+++;;&&**@@====&&&**@@;;;;**;;$$$,,****>>**;;;$$,,$$++;;*******====&&**@@;;;$",
"*;;$$,,,$$++;;&&**@@@====&&**@@;;;;;**;;$$,,****>>>**;;$$,,$$+++;;&&**@@====&&&**@@;;;;**;;$$$,,****>>**;;;$$,,$$++;;*******====&&**@@;;;$",
";$$;;$$$;;;;&&@@::---****@@::--@@;;;$$;;;;%%##**+++;;$$;;$$;;;;;&&@@::--****@@@::--@@;;$$;;;;;%%##**++;;$$$;;$$;;;;&&;;$$$,,****@@::--;;;-",
";$$;;$$$;;;;&&@@::---****@@::--@@;;;$$;;;;%%##**+++;;$$;;$$;;;;;&&@@::--****@@@::--@@;;$$;;;;;%%##**++;;$$$;;$$;;;;&&;;$$$,,****@@::--;;;-",
"-----;;;;;;;$$::--%%%##;;,,;;**;;*******@@%%$$;;;;;%%##;;,,;;***;;::--%%##;;,,,;;**;;******@@@%%$$;;;;%%###;;,,;;**;;::---%%##;;,,;;**;;;*",
"-----;;;;;;;$$::--%%%##;;,,;;**;;*******@@%%$$;;;;;%%##;;,,;;***;;::--%%##;;,,,;;**;;******@@@%%$$;;;;%%###;;,,;;**;;::---%%##;;,,;;**;;;*",
"@**$$$$$@@**>>--*****@@oo****$$;;;;;++==>>;;****;;;;;******;;;;;$$--****@@oo*****$$;;;;++==>>>;;****;;;;*******;;;;$$--*****@@oo****$$;;;;",
"@**$$$$$@@**>>--*****@@oo****$$;;;;;++==>>;;****;;;;;******;;;;;$$--****@@oo*****$$;;;;++==>>>;;****;;;;*******;;;;$$--*****@@oo****$$;;;;",
"$@@-----@@$$@@**;;***>>**;;$$****+++********++$$*****++*********++**;;**>>**;;;$$****++*********++$$****+++********++**;;;**>>**;;$$*****+",
"$@@-----@@$$@@**;;***>>**;;$$****+++********++$$*****++*********++**;;**>>**;;;$$****++*********++$$****+++********++**;;;**>>**;;$$*****+",
"---++*****----$$;;*******$$;;****@@@%%$$;;;;%%##;;;,,;;@@--**;;;$$$$;;******$$$;;****@@%%$$;;;;;%%##;;,,;;;@@--**;;$$$$;;;******$$;;*****@",
"---++*****----$$;;*******$$;;****@@@%%$$;;;;%%##;;;,,;;@@--**;;;$$$$;;******$$$;;****@@%%$$;;;;;%%##;;,,;;;@@--**;;$$$$;;;******$$;;*****@",
"-@@;;@@@;;++--$$;;;;;******&&====;;;**;;@@##%%$$;;;**;;%%>>**;;;;;$$;;;;*******&&====;;**;;@@@##%%$$;;**;;;%%>>**;;;;$$;;;;;******&&=====;",
"-@@;;@@@;;++--$$;;;;;******&&====;;;**;;@@##%%$$;;;**;;%%>>**;;;;;$$;;;;*******&&====;;**;;@@@##%%$$;;**;;;%%>>**;;;;$$;;;;;******&&=====;",
";$$**$$$--**;;@@=====;;**::@@****;;;$$****,,;;;;@@@**&&====++;;;$$@@====;;**:::@@****;;$$*****,,;;;;@@**&&&====++;;$$@@=====;;**::@@*****;",
";$$**$$$--**;;@@=====;;**::@@****;;;$$****,,;;;;@@@**&&====++;;;$$@@====;;**:::@@****;;$$*****,,;;;;@@**&&&====++;;$$@@=====;;**::@@*****;",
"o@@**@@@**-->>>>*****;;$$oo;;$$--;;;$$;;##%%;;@@---::@@****$$;;;;;>>****;;$$ooo;;$$--;;$$;;###%%;;@@--::@@@****$$;;;;>>*****;;$$oo;;$$---;",
"o@@**@@@**-->>>>*****;;$$oo;;$$--;;;$$;;##%%;;@@---::@@****$$;;;;;>>****;;$$ooo;;$$--;;$$;;###%%;;@@--::@@@****$$;;;;>>*****;;$$oo;;$$---;",
"$--**@@@**$$$$****,,,******oo@@**===**%%@@****;;***;;,,;;##@@;;;;;****,,*******oo@@**==**%%@@@****;;**;;,,,;;##@@;;;;*****,,******oo@@***=",
"$--**@@@**$$$$****,,,******oo@@**===**%%@@****;;***;;,,;;##@@;;;;;****,,*******oo@@**==**%%@@@****;;**;;,,,;;##@@;;;;*****,,******oo@@***=",
"***--*****;;--**--%%%##;;,,;;**;;*******@@%%$$;;***;;**##;;>>&&&>>**--%%##;;,,,;;**;;******@@@%%$$;;**;;***##;;>>&&>>**---%%##;;,,;;**;;;*",
"***--*****;;--**--%%%##;;,,;;**;;*******@@%%$$;;***;;**##;;>>&&&>>**--%%##;;,,,;;**;;******@@@%%$$;;**;;***##;;>>&&>>**---%%##;;,,;;**;;;*",
"-****ooo**@@$$*******@@oo****$$;;;;;++==>>;;**oo@@@$$,,;;;;$$---********@@oo*****$$;;;;++==>>>;;**oo@@$$,,,;;;;$$--*********@@oo****$$;;;;",
"-****ooo**@@$$*******@@oo****$$;;;;;++==>>;;**oo@@@$$,,;;;;$$---********@@oo*****$$;;;;++==>>>;;**oo@@$$,,,;;;;$$--*********@@oo****$$;;;;",
"-****$$$**@@$$++;;*******@@;;;;**###>>******++**;;;$$%%##@@;;***;;++;;******@@@;;;;**##>>*******++**;;$$%%%##@@;;**;;++;;;******@@;;;;***#",
"-****$$$**@@$$++;;*******@@;;;;**###>>******++**;;;$$%%##@@;;***;;++;;******@@@;;;;**##>>*******++**;;$$%%%##@@;;**;;++;;;******@@;;;;***#",
"*@@@@@@@@@XX**$$;;***##;;>>&&>>;;:::$$--**;;$$,,*****@@::--;;;;;**$$;;**##;;>>>&&>>;;::$$--***;;$$,,****@@@::--;;;;**$$;;;**##;;>>&&>>;;;:",
"*@@@@@@@@@XX**$$;;***##;;>>&&>>;;:::$$--**;;$$,,*****@@::--;;;;;**$$;;**##;;>>>&&>>;;::$$--***;;$$,,****@@@::--;;;;**$$;;;**##;;>>&&>>;;;:",
"@@@++***--$$;;@@;;;;;;;;;$$--**--:::&&****;;;;%%###;;,,;;****+++;;@@;;;;;;;;$$$--**--::&&*****;;;;%%##;;,,,;;****++;;@@;;;;;;;;;$$--**---:",
"@@@++***--$$;;@@;;;;;;;;;$$--**--:::&&****;;;;%%###;;,,;;****+++;;@@;;;;;;;;$$$--**--::&&*****;;;;%%##;;,,,;;****++;;@@;;;;;;;;;$$--**---:",
"*--*****$$;;;;>>=====##@@;;**;;=====&&;;++;;$$,,*****@@::--;;@@@%%>>====##@@;;;**;;====&&;;+++;;$$,,****@@@::--;;@@%%>>=====##@@;;**;;====",
"*--*****$$;;;;>>=====##@@;;**;;=====&&;;++;;$$,,*****@@::--;;@@@%%>>====##@@;;;**;;====&&;;+++;;$$,,****@@@::--;;@@%%>>=====##@@;;**;;====",
";++--@@@@@>>>>$$*****,,****$$;;*****@@%%$$;;;;%%###;;,,;;**;;@@@$$$$****,,*****$$;;****@@%%$$$;;;;%%##;;,,,;;**;;@@$$$$*****,,****$$;;****",
";++--@@@@@>>>>$$*****,,****$$;;*****@@%%$$;;;;%%###;;,,;;**;;@@@$$$$****,,*****$$;;****@@%%$$$;;;;%%##;;,,,;;**;;@@$$$$*****,,****$$;;****",
"***--@@@  oo;;;;##,,,****@@::--@@;;;****@@;;;;**###>>@@##@@;;;;;;;;;##,,****@@@::--@@;;****@@@;;;;**##>>@@@##@@;;;;;;;;###,,****@@::--@@@;",
"***--@@@  oo;;;;##,,,****@@::--@@;;;****@@;;;;**###>>@@##@@;;;;;;;;;##,,****@@@::--@@;;****@@@;;;;**##>>@@@##@@;;;;;;;;###,,****@@::--@@@;",
"***>>@@@;;**$$;;**;;;##;;,,;;**;;***##;;>>&&>>;;:::$$%%&&>>&&>>>**;;**;;##;;,,,;;**;;**##;;>>>&&>>;;::$$%%%&&>>&&>>**;;***;;##;;,,;;**;;;*",
"***>>@@@;;**$$;;**;;;##;;,,;;**;;***##;;>>&&>>;;:::$$%%&&>>&&>>>**;;**;;##;;,,,;;**;;**##;;>>>&&>>;;::$$%%%&&>>&&>>**;;***;;##;;,,;;**;;;*",
"*-->>+++****$$**$$;;;$$;;$$oo@@$$,,,;;;;$$--**--:::&&;;**;;;;&&&$$**$$;;$$;;$$$oo@@$$,,;;;;$$$--**--::&&;;;**;;;;&&$$**$$$;;$$;;$$oo@@$$$,",
"*-->>+++****$$**$$;;;$$;;$$oo@@$$,,,;;;;$$--**--:::&&;;**;;;;&&&$$**$$;;$$;;$$$oo@@$$,,;;;;$$$--**--::&&;;;**;;;;&&$$**$$$;;$$;;$$oo@@$$$,",
"$$$XX***oo$$;;@@::--->>%%;;**;;$$%%%##@@;;**;;=====&&***********;;@@::-->>%%;;;**;;$$%%##@@;;;**;;====&&***********;;@@:::-->>%%;;**;;$$$%",
"$$$XX***oo$$;;@@::--->>%%;;**;;$$%%%##@@;;**;;=====&&***********;;@@::-->>%%;;;**;;$$%%##@@;;;**;;====&&***********;;@@:::-->>%%;;**;;$$$%",
">,,;;$$$;;--;;,,;;***====&&**@@;;;;;,,****$$;;*****@@::**;;$$,,,**,,;;**====&&&**@@;;;;,,*****$$;;****@@:::**;;$$,,**,,;;;**====&&**@@;;;;",
">,,;;$$$;;--;;,,;;***====&&**@@;;;;;,,****$$;;*****@@::**;;$$,,,**,,;;**====&&&**@@;;;;,,*****$$;;****@@:::**;;$$,,**,,;;;**====&&**@@;;;;",
";;;oo+++$$>>$$$$oo@@@****@@::--@@;;;%%##;;$$;;--$$$;;oo$$;;;;%%%;;$$oo@@****@@@::--@@;;%%##;;;$$;;--$$;;ooo$$;;;;%%;;$$ooo@@****@@::--@@@;",
";;;oo+++$$>>$$$$oo@@@****@@::--@@;;;%%##;;$$;;--$$$;;oo$$;;;;%%%;;$$oo@@****@@@::--@@;;%%##;;;$$;;--$$;;ooo$$;;;;%%;;$$ooo@@****@@::--@@@;",
"o++@@;;;**;;++;;**;;;##;;,,;;**;;*****@@%%**==**@@@oo***********;;;;**;;##;;,,,;;**;;****@@%%%**==**@@oo***********;;;;***;;##;;,,;;**;;;*",
"o++@@;;;**;;++;;**;;;##;;,,;;**;;*****@@%%**==**@@@oo***********;;;;**;;##;;,,,;;**;;****@@%%%**==**@@oo***********;;;;***;;##;;,,;;**;;;*",
"@@@@@;;;@@@@;;&&**@@@====&&**@@;;;;;**;;$$,,****>>>**;;$$,,$$+++;;&&**@@====&&&**@@;;;;**;;$$$,,****>>**;;;$$,,$$++;;&&***@@====&&**@@;;;;",
"@@@@@;;;@@@@;;&&**@@@====&&**@@;;;;;**;;$$,,****>>>**;;$$,,$$+++;;&&**@@====&&&**@@;;;;**;;$$$,,****>>**;;;$$,,$$++;;&&***@@====&&**@@;;;;",
"-**$$***++$$**@@::---****@@::--@@;;;$$;;;;%%##**+++;;$$;;$$;;;;;&&@@::--****@@@::--@@;;$$;;;;;%%##**++;;$$$;;$$;;;;&&@@:::--****@@::--@@@;",
"-**$$***++$$**@@::---****@@::--@@;;;$$;;;;%%##**+++;;$$;;$$;;;;;&&@@::--****@@@::--@@;;$$;;;;;%%##**++;;$$$;;$$;;;;&&@@:::--****@@::--@@@;"
};
