/* XPM */
static char *_8df16621d294524a6a8548c0806f9c2J54UldkN9XKT90E7[] = {
/* columns rows colors chars-per-pixel */
"64 64 5 1 ",
"  c #101410",
". c #522800",
"X c #6B4518",
"o c #8C6531",
"0 c None",
/* pixels */
"0000000000000000000000000000000000000000000000000000000000000000",
"0000000000000000000000000000000000000000000000000000000000000000",
"0000000000000000000000000000000000000000000000000000000000000000",
"0000000000000000000000000000000000000000000000000000000000000000",
"0000000000000000000000000000000000000000000000000000000000000000",
"0000000000000000000000000000000000000000000000000000000000000000",
"0000000000000000000000000000000000000000000000000000000000000000",
"0000000000000000000000000000000000000000000000000000000000000000",
"0000000000000000000000000000000000000000000000000000000000000000",
"0000000000000000000000000000000000000000000000000000000000000000",
"0000000000000000000000000000000000000000000000000000000000000000",
"0000000000000000000000000000000000000000000000000000000000000000",
"0000000000000000000000000000000000000000000000000000000000000000",
"0000000000000000000000000000000000000000000000000000000000000000",
"0000000000000000000000000000000000000000000000000000000000000000",
"0000000000000000000000000000000000000000000000000000000000000000",
"0000000000000000000000000000000000000000000000000000000000000000",
"0000000000000000000000000000000000000000000000000000000000000000",
"0000000000000000000000000000000000000000000000000000000000000000",
"0000000000000000000000000000000000000000000000000000000000000000",
"0000000000000000000000000000000000000000000000000000000000000000",
"00000000000000000000000  0000000000000000000000  000000000000000",
"00000000000000000000000  0000000000000000000000  000000000000000",
"000000000000000000000  XX   00000000000000000  oo  0000000000000",
"000000000000000000000  XX   00000000000000000  oo  0000000000000",
"00000000000000000000000  ooo  0000000000     XXoo  0000000000000",
"00000000000000000000000  ooo  0000000000     XXoo  0000000000000",
"00000000000000000000000  XXX    000000  XXXXXoo  000000000000000",
"00000000000000000000000  XXX    000000  XXXXXoo  000000000000000",
"0000000000000000000000000   XX..        XXXoo  00000000000000000",
"0000000000000000000000000   XX..        XXXoo  00000000000000000",
"0000000000000000000      XXXooXX  XX..  XXXoo..  000000000000000",
"0000000000000000000      XXXooXX  XX..  XXXoo..  000000000000000",
"000000000000000    oooooooooooooooooXXoo   XX..  000000000000000",
"000000000000000    oooooooooooooooooXXoo   XX..  000000000000000",
"0000000000000  ooooXXXXXXXXXooooooooooooXXXXX..  000000000000000",
"0000000000000  ooooXXXXXXXXXooooooooooooXXXXX..  000000000000000",
"000000000000000  XX  XX  ...XXXXXXXXXXXXXXX..  00000000000000000",
"000000000000000  XX  XX  ...XXXXXXXXXXXXXXX..  00000000000000000",
"00000000000000000      00       ....XX..     0000000000000000000",
"00000000000000000      00       ....XX..     0000000000000000000",
"00000000000000000000000000000000        000000000000000000000000",
"00000000000000000000000000000000        000000000000000000000000",
"0000000000000000000000000000000000000000000000000000000000000000",
"0000000000000000000000000000000000000000000000000000000000000000",
"0000000000000000000000000000000000000000000000000000000000000000",
"0000000000000000000000000000000000000000000000000000000000000000",
"0000000000000000000000000000000000000000000000000000000000000000",
"0000000000000000000000000000000000000000000000000000000000000000",
"0000000000000000000000000000000000000000000000000000000000000000",
"0000000000000000000000000000000000000000000000000000000000000000",
"0000000000000000000000000000000000000000000000000000000000000000",
"0000000000000000000000000000000000000000000000000000000000000000",
"0000000000000000000000000000000000000000000000000000000000000000",
"0000000000000000000000000000000000000000000000000000000000000000",
"0000000000000000000000000000000000000000000000000000000000000000",
"0000000000000000000000000000000000000000000000000000000000000000",
"0000000000000000000000000000000000000000000000000000000000000000",
"0000000000000000000000000000000000000000000000000000000000000000",
"0000000000000000000000000000000000000000000000000000000000000000",
"0000000000000000000000000000000000000000000000000000000000000000",
"0000000000000000000000000000000000000000000000000000000000000000",
"0000000000000000000000000000000000000000000000000000000000000000",
"0000000000000000000000000000000000000000000000000000000000000000"
};
