/* XPM */
static char *_d8d25be9d2e4455da09aa7fc1b7bb26yFOChmga8LuF5Dgz[] = {
/* columns rows colors chars-per-pixel */
"64 64 17 1 ",
"  c #210400",
". c #291000",
"X c #211808",
"o c #311400",
"O c #311C08",
"+ c #393018",
"@ c #421C00",
"# c #4A2000",
"$ c #522808",
"% c #5A3010",
"& c #6B3818",
"* c #734121",
"= c #7B4D29",
"- c #845531",
"; c #946139",
": c #9C694A",
"> c None",
/* pixels */
">>>>>>>>>>>>>>>>>>>>>>>>>>>>>>>>>>>>>>>>>>>>>>>>>>>>>>>>>>>>>>>>",
">>>>>>>>>>>>>>>>>>>>>>>>>>>>>>>>>>>>>>>>>>>>>>>>>>>>>>>>>>>>>>>>",
">>>>>>>>>>>>>>>>>>>>>>>>>>>>>>>>>>>>>>>>>>>>>>>>>>>>>>>>>>>>>>>>",
">>>>>>>>>>>>>>>>>>>>>>>>>>>>>>>>>>>>>>>>>>>>>>>>>>>>>>>>>>>>>>>>",
">>>>>>>>>>>>>>>>>>>>>>>>>>>>>>>>>>>>>>>>>>>>>>>>>>>>>>>>>>>>>>>>",
">>>>>>>>>>>O+++OO..OOoo  OOO$$$$OO>>>>>>>>>>>>>>>>>>>>>>>>>>>>>>",
">>>>>>>>>.OO+++OO..OOoo  OOO$$$$OO>>>>>>>>>>>>>>>>>>>>>>>>>>>>>>",
">>>>>>>>>.OOOOOOO....OO..OOOOO$$..>>>>>>>>>>>>>>>>>>>>>>>>>>>>>>",
">>>>>>>>>.OOOOOOO....OO..OOOOO$$..>>>>>>>>>..OOOOOOOOoo>>>>>>>>>",
">>>>>>>>>XOO#####OO.........ooOO...............OO$$$$OO>>>>>>>>>",
">>>>>>>>>XOO#####OO.........ooOO...............OO$$$$OO>>>>>>>>>",
">>>>>>>>>.#####@@@@##@@OO   ..@@@@oo#########..::OO$$..>>>>>>>>>",
">>>>>>>>>.#####@@@@##@@OO   ..@@@@oo#########..::OO$$..>>>>>>>>>",
">>>>>>>>>o@@@@@@@oo@@@@@@@@@@@@@oooo##;;===**$$;;OO$$OO>>>>>>>>>",
">>>>>>>>>o@@@@@@@oo@@@@@@@@@@@@@oooo##;;===**$$;;OO$$OO>>>>>>>>>",
">>>>>>>>oo@@ooooooo@@@@@@ooo@@oooooo##--*****##;;==$$OO>>>>>>>>>",
">>>>>>>>oo@@ooooooo@@@@@@ooo@@oooooo##--*****##;;==$$OO>>>>>>>>>",
">>>>>>>>..ooooooooo@@ooooooo@@@@@@@@##--***&&##--====oo>>>>>>>>>",
">>>>>>>>..ooooooooo@@ooooooo@@@@@@@@##--***&&##--====oo>>>>>>>>>",
">>>>>>>O..ooooooo..oooooo...@@--**&&@@==***&&##--====OO>>>>>>>>>",
">>>>>>>O..ooooooo..oooooo...@@--**&&@@==***&&##--====OO>>>>>>>>>",
">>>>>>>...oo.......oo.......@@==%%&&@@*****&&@@==**&&$$>>>>>>>>>",
">>>>>>>...oo.......oo.......@@==%%&&@@*****&&@@==**&&$$>>>>>>>>>",
">>>>>>>............ooooooooo@@==%%&&@@*******@@****&&$$>>>>>>>>>",
">>>>>>>............ooooooooo@@==%%&&@@*******@@****&&$$>>>>>>>>>",
">>>>>>>OXX.........oo==&&%%%oo**%%&&@@*****&&@@******$$>>>>>>>>>",
">>>>>>>OXX.........oo==&&%%%oo**%%&&@@*****&&@@******$$>>>>>>>>>",
">>>>>>>............oo**%%%%%oo**%%%%@@*******@@****&&$$>>>>>>>>>",
">>>>>>>............oo**%%%%%oo**%%%%@@*******@@****&&$$>>>>>>>>>",
">>>>>>>Ooo...........**$$%%%..**&&&&oo&&***&&@@****OO$$>>>>>>>>>",
">>>>>>OOoo...........**$$%%%..**&&&&oo&&***&&@@****OO$$>>>>>>>>>",
">>>>>>..oo..&&&$$##..&&&&%%%@@**%%**##--*****##--==XXOO>>>>>>>>>",
">>>>>>..oo..&&&$$##..&&&&%%%@@**%%**##--*****##--==XXOO>>>>>>>>>",
">>>>>>......$$$####oo&&$$%%%..**&&&&@@--*****##==....##>>>>>>>>>",
">>>>>>......$$$####oo&&$$%%%..**&&&&@@--*****##==....##>>>>>>>>>",
">>>>>>OO....$$$@@##..&&&&%%%@@**%%**@@==*****##==OOOO@@>>>>>>>>>",
">>>>>>OO....$$$@@##..&&&&%%%@@**%%**@@==*****##==OOOO@@>>>>>>>>>",
">>>>>>......###@@##oo&&$$%%%oo**&&&&@@==***&&##==..OOOOO>>>>>>>>",
">>>>>>......###@@##oo&&$$%%%oo**&&&&@@==***&&##==..OOOOO>>>>>>>>",
">>>>>>......$$$@@##..&&%%$$$oo&&&&&&@@==&&&&&@@OOXXOOOOO>>>>>>>>",
">>>>>>......$$$@@##..&&%%$$$oo&&&&&&@@==&&&&&@@OOXXOOOOO>>>>>>>>",
">>>>>.@@$$..###@@##..$$%%$$$oo&&%%&&@@**%%%%%oo....##OOO>>>>>>>>",
">>>>>.@@$$..###@@##..$$%%$$$oo&&%%&&@@**%%%%%oo....##OOO>>>>>>>>",
">>>>..ooOO@@OOO@@##..%%%%%%%oo%%%%@@@@@@@@@%%ooOOoo....o>>>>>>>>",
">>>>..ooOO@@OOO@@##..%%%%%%%oo%%%%@@@@@@@@@%%ooOOoo....o>>>>>>>>",
">>>>oo..OO@@@@@@@@@@@OO%%%%%oo@@##OO..OO...@@@@%%$$$$OOO>>>>>>>>",
">>>>>>..OO@@@@@@@@@@@OO%%%%%oo@@##OO..OO...@@@@%%$$$$OOO>>>>>>>>",
">>>>>>OO..OO...OO..@@@@@@@@@..OO..OO....OOOoo@@$$$$OOOO.>>>>>>>>",
">>>>>>OO..OO...OO..@@@@@@@@@..OO..OO....OOOoo@@$$$$OOOO.>>>>>>>>",
">>>>>>....  ...OO..OO..OOooo..OO..OOOOoo@@@OO@@@@OOoo##o>>>>>>>>",
">>>>>>....  ...OO..OO..OOooo..OO..OOOOoo@@@OO@@@@OOoo#>>>>>>>>>>",
">>>>>>OOOOOO...  ..  ..OOooo..OO..OOOO.....OOOO##....O>>>>>>>>>>",
">>>>>>>>>>>>>>.  ..  ..OOooo..OO..OOOO.....OOOO##.>>>>>>>>>>>>>>",
">>>>>>>>>>>>>>>>X..OOOOooOOOOOOOOO......OOOOO####O>>>>>>>>>>>>>>",
">>>>>>>>>>>>>>>>X..OOOOooOOOOOOOOO..>>>>>>>>>>>>>>>>>>>>>>>>>>>>",
">>>>>>>>>>>>>>>>>>>>>>>>>>>>>>>>>>>>>>>>>>>>>>>>>>>>>>>>>>>>>>>>",
">>>>>>>>>>>>>>>>>>>>>>>>>>>>>>>>>>>>>>>>>>>>>>>>>>>>>>>>>>>>>>>>",
">>>>>>>>>>>>>>>>>>>>>>>>>>>>>>>>>>>>>>>>>>>>>>>>>>>>>>>>>>>>>>>>",
">>>>>>>>>>>>>>>>>>>>>>>>>>>>>>>>>>>>>>>>>>>>>>>>>>>>>>>>>>>>>>>>",
">>>>>>>>>>>>>>>>>>>>>>>>>>>>>>>>>>>>>>>>>>>>>>>>>>>>>>>>>>>>>>>>",
">>>>>>>>>>>>>>>>>>>>>>>>>>>>>>>>>>>>>>>>>>>>>>>>>>>>>>>>>>>>>>>>",
">>>>>>>>>>>>>>>>>>>>>>>>>>>>>>>>>>>>>>>>>>>>>>>>>>>>>>>>>>>>>>>>",
">>>>>>>>>>>>>>>>>>>>>>>>>>>>>>>>>>>>>>>>>>>>>>>>>>>>>>>>>>>>>>>>",
">>>>>>>>>>>>>>>>>>>>>>>>>>>>>>>>>>>>>>>>>>>>>>>>>>>>>>>>>>>>>>>>"
};
