/* XPM */
static char *c0be38ecab52492fbcfc07fd9a8dcd70QOcbyxJ7KqfAvOVQ[] = {
/* columns rows colors chars-per-pixel */
"64 64 2 1 ",
"  c None",
". c #501000",
/* pixels */
"                                                                ",
"                                                                ",
"                                                                ",
"  ............................................................  ",
"  ............................................................  ",
"  ............................................................  ",
"  ............................................................  ",
"  ............................................................  ",
"  ............................................................  ",
"  ..............                                                ",
"  ..............                                                ",
"  ..............                                                ",
"  ..............                                                ",
"  ..............                                                ",
"  ..............                                                ",
"  ..............                                                ",
"  ..............                                                ",
"  ..............                                                ",
"  ..............                                                ",
"  ..............                                                ",
"  ..............                                                ",
"  ..............                                                ",
"  ..............                                                ",
"  ..............                                                ",
"  ..............                                                ",
"  ..............                                                ",
"  ..............                                                ",
"  ..............                                                ",
"  ..............                                                ",
"  ............................................................  ",
"  ............................................................  ",
"  ............................................................  ",
"  ............................................................  ",
"  ............................................................  ",
"  ............................................................  ",
"  ..............                                                ",
"  ..............                                                ",
"  ..............                                                ",
"  ..............                                                ",
"  ..............                                                ",
"  ..............                                                ",
"  ..............                                                ",
"  ..............                                                ",
"  ..............                                                ",
"  ..............                                                ",
"  ..............                                                ",
"  ..............                                                ",
"  ..............                                                ",
"  ..............                                                ",
"  ..............                                                ",
"  ..............                                                ",
"  ..............                                                ",
"  ..............                                                ",
"  ..............                                                ",
"  ..............                                                ",
"  ............................................................  ",
"  ............................................................  ",
"  ............................................................  ",
"  ............................................................  ",
"  ............................................................  ",
"  ............................................................  ",
"                                                                ",
"                                                                ",
"                                                                "
};
