/* XPM */
static char *fb29a84852d047fa85ee30db4a598ca1N6JKpcmodBqNKDPN[] = {
/* columns rows colors chars-per-pixel */
"75 99 39 1 ",
"  c #101410",
". c #183000",
"X c #294D08",
"o c #423C42",
"O c #4A4D4A",
"+ c #5A5D5A",
"@ c #6B696B",
"# c #A52400",
"$ c #FF4D00",
"% c #C67131",
"& c #5A8239",
"* c #739A5A",
"= c #948E42",
"- c #9D9852",
"; c #BD8A42",
": c #94B67B",
"> c #AFAA71",
", c #B0AB73",
"< c #C69A4A",
"1 c #CEAA5A",
"2 c #D6BE6B",
"3 c #DECF7B",
"4 c #BEBA8C",
"5 c #A5A2A5",
"6 c #CAC7A1",
"7 c #D7D5B9",
"8 c #FFFFB5",
"9 c #C6BEC6",
"0 c #E0DEC9",
"q c #E4E2CF",
"w c #F1F1E7",
"e c #EFEBF7",
"r c #FCFCFA",
"t c #FCFCFB",
"y c #FDFDFC",
"u c #FEFDFC",
"i c #FEFEFE",
"p c #FFFFFE",
"a c None",
/* pixels */
"aaaaaaaaaaaaaaaaaaaaaaaaaaaaaaaaaaaaaaaaaaaaaaaaaaaaaaaaaaaaaaaaaaaaaaaaaaa",
"aaaaaaaaaaaaaaaaaaaaaaaaaaaaaaaaaaaaaaaaaaaaaaaaaaaaaaaaaaaaaaaaaaaaaaaaaaa",
"aaaaaaaaaaaaaaaaaaaaaaaaaaaaaaaaaaaaaaaaaaaaaaaaaaaaaaaaaaaaaaaaaaaaaaaaaaa",
"aaaaaaaaaaaaaaaaaaaaaaaaaaaaaaaaaaaaaaaaaaaaaaaaaaaaaaaaaaaaaaaaaaaaaaaaaaa",
"aaaaaaaaaaaaaaaaaaaaaaaaaaaaaaaaaaaaaaaaaaaaaaaaaaaaaaaaaaaaaaaaaaaaaaaaaaa",
"aaaaaaaaaaaaaaaaaaaaaaaaaaaaaaaaaaaaaaaaaaaaaaaaaaaaaaaaaaaaaaaaaaaaaaaaaaa",
"aaaaaaaaaaaaaaaaaaaaaaaaaaaaaaaaaaaaaaaaaaaaaaaaaaaaaaaaaaaaaaaaaaaaaaaaaaa",
"aaaaaaaaaaaaaaaaaaaaaaaaaaaaaaaaaaaaaaaaaaaaaaaaaaaaaaaaaaaaaaaaaaaaaaaaaaa",
"aaaaaaaaaaaaaaaaaaaaaaaaaaaaaaa           aaaaaaaaaaaaaaaaaaaaaaaaaaaaaaaaa",
"aaaaaaaaaaaaaaaaaaaaaaaaaaaaaaa           aaaaaaaaaaaaaaaaaaaaaaaaaaaaaaaaa",
"aaaaaaaaaaaaaaaaaaaaaaaaaaa                   aaaaaaaaaaaaaaaaaaaaaaaaaaaaa",
"aaaaaaaaaaaaaaaaaaaaaaaaaaa                   aaaaaaaaaaaaaaaaaaaaaaaaaaaaa",
"aaaaaaaaaaaaaaaaaaaaaaaaa                        aaaaaaaaaaaaaaaaaaaaaaaaaa",
"aaaaaaaaaaaaaaaaaaaaaaaaa                        aaaaaaaaaaaaaaaaaaaaaaaaaa",
"aaaaaaaaaaaaaaaaaaaaaaa                            aaaaaaaaaaaaaaaaaaaaaaaa",
"aaaaaaaaaaaaaaaaaaaaaaa                            aaaaaaaaaaaaaaaaaaaaaaaa",
"aaaaaaaaaaaaaaaaaaaaaaa                            aaaaaaaaaaaaaaaaaaaaaaaa",
"aaaaaaaaaaaaaaaaaaaaaaa                            aaaaaaaaaaaaaaaaaaaaaaaa",
"aaaaaaaaaaaaaaaaaa                            333  aaaaaaaaaaaaaaaaaaaaaaaa",
"aaaaaaaaaaaaaaaaaa                            333  aaaaaaaaaaaaaaaaaaaaaaaa",
"aaaaaaaaaaaaaaaa                        <<    333  aaaaaaaaaaaaaaaaaaaaaaaa",
"aaaaaaaaaaaaaaaa                        <<    333  aaaaaaaaaaaaaaaaaaaaaaaa",
"aaaaaaaaaaaaaaaa         %%             33    222  aaaaaaaaaaaaaaaaaaaaaaaa",
"aaaaaaaaaaaaaaaa         %%             33    222  aaaaaaaaaaaaaaaaaaaaaaaa",
"aaaaaaaaaaaaaaaa                        2222ee   ;;  aaaaaaaaaaaaaaaaaaaaaa",
"aaaaaaaaaaaaaaaa                        2222ee   ;;  aaaaaaaaaaaaaaaaaaaaaa",
"aaaaaaaaaaaaaa                        2222ee     ;;  aaaaaaaaaaaaaaaaaaaaaa",
"aaaaaaaaaaaaaa                        2222ee     ;;  aaaaaaaaaaaaaaaaaaaaaa",
"aaaaaaaaaaaaaa               11     <<2222ee  ;;;;;  aaaaaaaaaaaaaaaaaaaaaa",
"aaaaaaaaaaaaaa               11     <<2222ee  ;;;;;  aaaaaaaaaaaaaaaaaaaaaa",
"aaaaaaaaaaaa             aa  11<<<  223333ee  ;;;  aaaaaaaaaaaaaaaaaaaaaaaa",
"aaaaaaaaaaaa             aa  11<<<  223333ee  ;;;  aaaaaaaaaaaaaaaaaaaaaaaa",
"aaaaaaaa               aaaaaa     2222338888  ;;;  aaaaaaaaaaaaaaaaaaaaaaaa",
"aaaaaaaa               aaaaaa     2222338888  ;;;  aaaaaaaaaaaaaaaaaaaaaaaa",
"aaaaaaaaaaaa      aaaaaaaaa         33333322  ;;;  aaaaaaaaaaaaaaaaaaaaaaaa",
"aaaaaaaaaaaa      aaaaaaaaa         33333322  ;;;  aaaaaaaaaaaaaaaaaaaaaaaa",
"aaaaaaaaaaaaaaaaaaaaaaaaa  XXXXXXX    <<<<  ;;;;;  aaaaaaaaaaaaaaaaaaaaaaaa",
"aaaaaaaaaaaaaaaaaaaaaaaaa  XXXXXXX    <<<<  ;;;;;  aaaaaaaaaaaaaaaaaaaaaaaa",
"aaaaaaaaaaaaaaaaaaaaaaa  ..*******..        ;;   aaaaaaaaaaaaaaaaaaaaaaaaaa",
"aaaaaaaaaaaaaaaaaaaaaaa  ..*******..        ;;   aaaaaaaaaaaaaaaaaaaaaaaaaa",
"aaaaaaaaaaaaaaaaaaaaa  ee&&XXXXXXX&&ee  $$  ;;   aaaaaaaaaaaaaaaaaaaaaaaaaa",
"aaaaaaaaaaaaaaaaaaaaa  ee&&XXXXXXX&&ee  $$  ;;   aaaaaaaaaaaaaaaaaaaaaaaaaa",
"aaaaaaaaaaaaaaaaaaaaa  ee..eeeeeee..ee      ;;     aaaaaaaaaaaaaaaaaaaaaaaa",
"aaaaaaaaaaaaaaaaaaaaa  ee..eeeeeee..ee      ;;     aaaaaaaaaaaaaaaaaaaaaaaa",
"aaaaaaaaaaaaaaaaaaaaa  eeee       eeee    ;;;;   ##  aaaaaaaaaaaaaaaaaaaaaa",
"aaaaaaaaaaaaaaaaaaaaa  eeee       eeee    ;;;;   ##  aaaaaaaaaaaaaaaaaaaaaa",
"aaaaaaaaaaaaaaaaaaaaa  ee  5599999  ee    ;;     $$  aaaaaaaaaaaaaaaaaaaaaa",
"aaaaaaaaaaaaaaaaaaaaa  ee  5599999  ee    ;;     $$  aaaaaaaaaaaaaaaaaaaaaa",
"aaaaaaaaaaaaaaaaaaaaaaa    559999955  @@  ;;     $$  aaaaaaaaaaaaaaaaaaaaaa",
"aaaaaaaaaaaaaaaaaaaaaaa    559999955  @@  ;;     $$  aaaaaaaaaaaaaaaaaaaaaa",
"aaaaaaaaaaaaaaaaaaaaaaaaa  559999955    ;;       $$  aaaaaaaaaaaaaaaaaaaaaa",
"aaaaaaaaaaaaaaaaaaaaaaaaa  559999955    ;;       $$  aaaaaaaaaaaaaaaaaaaaaa",
"aaaaaaaaaaaaaaaaaaaaaaaaa  55559999955    ;;;;   $$  aaaaaaaaaaaaaaaaaaaaaa",
"aaaaaaaaaaaaaaaaaaaaaaaaa  55559999955    ;;;;   $$  aaaaaaaaaaaaaaaaaaaaaa",
"aaaaaaaaaaaaaaaaaaaaaaaaa    5599999  1111  ;;   $$  aaaaaaaaaaaaaaaaaaaaaa",
"aaaaaaaaaaaaaaaaaaaaaaaaa    5599999  1111  ;;   $$  aaaaaaaaaaaaaaaaaaaaaa",
"aaaaaaaaaaaaaaaaaaaaaaaaa    5555599  33;;       $$  aaaaaaaaaaaaaaaaaaaaaa",
"aaaaaaaaaaaaaaaaaaaaaaaaa    5555599  33;;       $$  aaaaaaaaaaaaaaaaaaaaaa",
"aaaaaaaaaaaaaaaaaaaaaaaaa  &&  555  1111;;       ##  aaaaaaaaaaaaaaaaaaaaaa",
"aaaaaaaaaaaaaaaaaaaaaaaaa  &&  555  1111;;       ##  aaaaaaaaaaaaaaaaaaaaaa",
"aaaaaaaaaaaaaaaaaaaaaaa  ee  &&     ;;;;  **  eee  aaaaaaaaaaaaaaaaaaaaaaaa",
"aaaaaaaaaaaaaaaaaaaaaaa  ee  &&     ;;;;  **  eee  aaaaaaaaaaaaaaaaaaaaaaaa",
"aaaaaaaaaaaaaaaaaaaaaaa  ee  &&*****    ****  eee  aaaaaaaaaaaaaaaaaaaaaaaa",
"aaaaaaaaaaaaaaaaaaaaaaa  ee  &&*****    ****  eee  aaaaaaaaaaaaaaaaaaaaaaaa",
"aaaaaaaaaaaaaaaaaaaaaaa  ee  &&*****::::****  eee  aaaaaaaaaaaaaaaaaaaaaaaa",
"aaaaaaaaaaaaaaaaaaaaaaa  ee  &&*****::::****  eee  aaaaaaaaaaaaaaaaaaaaaaaa",
"aaaaaaaaaaaaaaaaaaaaaaa  ee  &&*****::::****  eee  aaaaaaaaaaaaaaaaaaaaaaaa",
"aaaaaaaaaaaaaaaaaaaaaaa  ee  &&*****::::****  eee  aaaaaaaaaaaaaaaaaaaaaaaa",
"aaaaaaaaaaaaaaaaaaaaaaa  ee  &&*****::::****&&   aaaaaaaaaaaaaaaaaaaaaaaaaa",
"aaaaaaaaaaaaaaaaaaaaaaa  ee  &&*****::::****&&   aaaaaaaaaaaaaaaaaaaaaaaaaa",
"aaaaaaaaaaaaaaaaaaaaaaa  ee  &&*****::::****&&   aaaaaaaaaaaaaaaaaaaaaaaaaa",
"aaaaaaaaaaaaaaaaaaaaaaa  ee  &&*****::::****&&   aaaaaaaaaaaaaaaaaaaaaaaaaa",
"aaaaaaaaaaaaaaaaaaaaaaa  ee  &&*****::::****ee   aaaaaaaaaaaaaaaaaaaaaaaaaa",
"aaaaaaaaaaaaaaaaaaaaaaa  ee  &&*****::::****ee   aaaaaaaaaaaaaaaaaaaaaaaaaa",
"aaaaaaaaaaaaaaaaaaaaaaa  ee  eeeee**::::eeee  aaaaaaaaaaaaaaaaaaaaaaaaaaaaa",
"aaaaaaaaaaaaaaaaaaaaaaa  ee  eeeee**::::eeee  aaaaaaaaaaaaaaaaaaaaaaaaaaaaa",
"aaaaaaaaaaaaaaaaaaaaaaa  ee       eeeeee    aaaaaaaaaaaaaaaaaaaaaaaaaaaaaaa",
"aaaaaaaaaaaaaaaaaaaaaaa  ee       eeeeee    aaaaaaaaaaaaaaaaaaaaaaaaaaaaaaa",
"aaaaaaaaaaaaaaaaaaaaaaaaa  aa  ooo        ++  aaaaaaaaaaaaaaaaaaaaaaaaaaaaa",
"aaaaaaaaaaaaaaaaaaaaaaaaa  aa  ooo        ++  aaaaaaaaaaaaaaaaaaaaaaaaaaaaa",
"aaaaaaaaaaaaaaaaaaaaaaaaaaaaa  oooOOOO++++    aaaaaaaaaaaaaaaaaaaaaaaaaaaaa",
"aaaaaaaaaaaaaaaaaaaaaaaaaaaaa  oooOOOO++++    aaaaaaaaaaaaaaaaaaaaaaaaaaaaa",
"aaaaaaaaaaaaaaaaaaaaaaaaaaaaa  oooooOOOO++++  aaaaaaaaaaaaaaaaaaaaaaaaaaaaa",
"aaaaaaaaaaaaaaaaaaaaaaaaaaaaa  oooooOOOO++++  aaaaaaaaaaaaaaaaaaaaaaaaaaaaa",
"aaaaaaaaaaaaaaaaaaaaaaaaaaaaa  ooooooooooooo  aaaaaaaaaaaaaaaaaaaaaaaaaaaaa",
"aaaaaaaaaaaaaaaaaaaaaaaaaaaaa  ooooooooooooo  aaaaaaaaaaaaaaaaaaaaaaaaaaaaa",
"aaaaaaaaaaaaaaaaaaaaaaaaaaaaaaa             aaaaaaaaaaaaaaaaaaaaaaaaaaaaaaa",
"aaaaaaaaaaaaaaaaaaaaaaaaaaaaaaa             aaaaaaaaaaaaaaaaaaaaaaaaaaaaaaa",
"aaaaaaaaaaaaaaaaaaaaaaaaaaaaaaaaaaaaaaaaaaaaaaaaaaaaaaaaaaaaaaaaaaaaaaaaaaa",
"aaaaaaaaaaaaaaaaaaaaaaaaaaaaaaaaaaaaaaaaaaaaaaaaaaaaaaaaaaaaaaaaaaaaaaaaaaa",
"aaaaaaaaaaaaaaaaaaaaaaaaaaaaaaaaaaaaaaaaaaaaaaaaaaaaaaaaaaaaaaaaaaaaaaaaaaa",
"aaaaaaaaaaaaaaaaaaaaaaaaaaaaaaaaaaaaaaaaaaaaaaaaaaaaaaaaaaaaaaaaaaaaaaaaaaa",
"aaaaaaaaaaaaaaaaaaaaaaaaaaaaaaaaaaaaaaaaaaaaaaaaaaaaaaaaaaaaaaaaaaaaaaaaaaa",
"aaaaaaaaaaaaaaaaaaaaaaaaaaaaaaaaaaaaaaaaaaaaaaaaaaaaaaaaaaaaaaaaaaaaaaaaaaa",
"aaaaaaaaaaaaaaaaaaaaaaaaaaaaaaaaaaaaaaaaaaaaaaaaaaaaaaaaaaaaaaaaaaaaaaaaaaa",
"aaaaaaaaaaaaaaaaaaaaaaaaaaaaaaaaaaaaaaaaaaaaaaaaaaaaaaaaaaaaaaaaaaaaaaaaaaa",
"aaaaaaaaaaaaaaaaaaaaaaaaaaaaaaaaaaaaaaaaaaaaaaaaaaaaaaaaaaaaaaaaaaaaaaaaaaa",
"aaaaaaaaaaaaaaaaaaaaaaaaaaaaaaaaaaaaaaaaaaaaaaaaaaaaaaaaaaaaaaaaaaaaaaaaaaa",
"aaaaaaaaaaaaaaaaaaaaaaaaaaaaaaaaaaaaaaaaaaaaaaaaaaaaaaaaaaaaaaaaaaaaaaaaaaa"
};
