/* XPM */
static char *_1d4e137bac74c1bcc11a0cd7c06032cwnyInkiVByFuyczj[] = {
/* columns rows colors chars-per-pixel */
"87 93 27 1 ",
"  c #101410",
". c #183000",
"X c #294D08",
"o c #426521",
"O c #423C42",
"+ c #4A4D4A",
"@ c #5A5D5A",
"# c #6B696B",
"$ c #A52400",
"% c #FF4D00",
"& c #C67131",
"* c #5A8239",
"= c #739A5A",
"- c #948E42",
"; c #BD8A42",
": c #94B67B",
"> c #CEAA5A",
", c #D6BE6B",
"< c #DECF7B",
"1 c #A5A2A5",
"2 c #B5B2B5",
"3 c #C6BEC6",
"4 c #D6CFD6",
"5 c #EFEBF7",
"6 c #FEFEFE",
"7 c #FFFFFE",
"8 c None",
/* pixels */
"888888888888888888888888888888888888888888888888888888888888888888888888888888888888888",
"888888888888888888888888888888888888888888888888888888888888888888888888888888888888888",
"888888888888888888888888888888888888888888888888888888888888888888888888888888888888888",
"888888888888888888888888888888888888888888888888888888888888888888888888888888888888888",
"888888888888888888888888888888888888888888888888888888888888888888888888888888888888888",
"888888888888888888888888888888888888888888888888888888888888888888888888888888888888888",
"88888888888888888888888888888888888           88888888888888888888888888888888888888888",
"88888888888888888888888888888888888           88888888888888888888888888888888888888888",
"8888888888888888888888888888888                   8888888888888888888888888888888888888",
"8888888888888888888888888888888                   8888888888888888888888888888888888888",
"88888888888888888888888888888                        8888888888888888888888888888888888",
"88888888888888888888888888888                        8888888888888888888888888888888888",
"888888888888888888888888888                            88888888888888888888888888888888",
"888888888888888888888888888                            88888888888888888888888888888888",
"888888888888888888888888888                            88888888888888888888888888888888",
"888888888888888888888888888                            88888888888888888888888888888888",
"8888888888888888      888                                88      8888888888888888888888",
"8888888888888888      888                                88      8888888888888888888888",
"88888888888888                                                      8888888888888888888",
"88888888888888                                                      8888888888888888888",
"88888888888888        &&&                                &&         8888888888888888888",
"88888888888888        &&&                                &&         8888888888888888888",
"88888888888888                                                      8888  8888888888888",
"88888888888888                                                      8888  8888888888888",
"888888888888          888                                88             ;;  88888888888",
"888888888888          888                                88             ;;  88888888888",
"888888888888          88888                            8888             ;;  88888888888",
"888888888888          88888                            8888             ;;  88888888888",
"8888888888            88888                            8888             ;;  88888888888",
"8888888888            88888                            8888             ;;  88888888888",
"88888               888888888                        88888888               88888888888",
"88888               888888888                        88888888               88888888888",
"8888888888      8888                                         8888         8888888888888",
"8888888888      8888                                         8888         8888888888888",
"88888888888888      ..***..**  $$  >>>>>>>>>>>  $$   **..**..         ;;  8888888888888",
"88888888888888      ..***..**  $$  >>>>>>>>>>>  $$   **..**..         ;;  8888888888888",
"888888888888  22..**XX===XX====  %%           %%  =====XX==XX**..222  ;;  8888888888888",
"888888888888  22..**XX===XX====  %%           %%  =====XX==XX**..222  ;;  8888888888888",
"888888888888  44XX==555555555  **               **   55555555==XX444    888888888888888",
"888888888888  44XX==555555555  **               **   55555555==XX444    888888888888888",
"888888888888  555555         55****===========****555        5555555    888888888888888",
"888888888888  555555         55****===========****555        5555555    888888888888888",
"88888888888888        11133  55****===========****555  3311         ;;  888888888888888",
"88888888888888        11133  55****===========****555  3311         ;;  888888888888888",
"88888888888888888888  1113311  55***************55   113311  88  ;;;;;  888888888888888",
"88888888888888888888  1113311  55***************55   113311  88  ;;;;;  888888888888888",
"88888888888888888888  1111111    555555555555555     111111  88  ;;;  88888888888888888",
"88888888888888888888  1111111    555555555555555     111111  88  ;;;  88888888888888888",
"88888888888888888888  1113311  ++               ++   113311  88  ;;;  88888888888888888",
"88888888888888888888  1113311  ++               ++   113311  88  ;;;  88888888888888888",
"88888888888888888888  1113311  ++@@@@@######@@@@++   11331111  ;;     88888888888888888",
"88888888888888888888  1113311  ++@@@@@######@@@@++   11331111  ;;     88888888888888888",
"88888888888888888888  11133  oo  @@@@@######@@@@  ooo  113311    ;;;;;  888888888888888",
"88888888888888888888  11133  oo  @@@@@######@@@@  ooo  113311    ;;;;;  888888888888888",
"88888888888888888888         **==     ######    ==***  1133  <<,,   ;;  888888888888888",
"88888888888888888888         **==     ######    ==***  1133  <<,,   ;;  888888888888888",
"88888888888888888888  >>>>>  **==  555      55  ==***      ;;<<>>     88888888888888888",
"88888888888888888888  >>>>>  **==  555      55  ==***      ;;<<>>     88888888888888888",
"8888888888888888888888   >>  **==  555**==**55  ==***  88    ;;;;   8888888888888888888",
"8888888888888888888888   >>  **==  555**==**55  ==***  88    ;;;;   8888888888888888888",
"8888888888888888888888888  oo==::  555**==**55  ::===oo  8888    8888888888888888888888",
"8888888888888888888888888  oo==::  555**==**55  ::===oo  8888    8888888888888888888888",
"8888888888888888888888888  **==::  555**==**55  ::===**  888888888888888888888888888888",
"8888888888888888888888888  **==::  555**==**55  ::===**  888888888888888888888888888888",
"8888888888888888888888888  **==::  555**==**55  ::===**  888888888888888888888888888888",
"8888888888888888888888888  **==::  555**==**55  ::===**  888888888888888888888888888888",
"8888888888888888888888888  **==::  555**==**55  ::===**  888888888888888888888888888888",
"8888888888888888888888888  **==::  555**==**55  ::===**  888888888888888888888888888888",
"8888888888888888888888888  **==::  555**==**55  ::===**  888888888888888888888888888888",
"8888888888888888888888888  **==::  555**==**55  ::===**  888888888888888888888888888888",
"8888888888888888888888888  **==::  555**==**55  ::===**  888888888888888888888888888888",
"8888888888888888888888888  **==::  555**==**55  ::===**  888888888888888888888888888888",
"8888888888888888888888888  55==::  555**==**55  ::===55  888888888888888888888888888888",
"8888888888888888888888888  55==::  555**==**55  ::===55  888888888888888888888888888888",
"888888888888888888888888888  5555  555******55  55555  88888888888888888888888888888888",
"888888888888888888888888888  5555  555******55  55555  88888888888888888888888888888888",
"88888888888888888888888888888      55555555555       8888888888888888888888888888888888",
"88888888888888888888888888888      55555555555       8888888888888888888888888888888888",
"888888888888888888888888888  @@OO++           ++OO@@@  88888888888888888888888888888888",
"888888888888888888888888888  @@OO++           ++OO@@@  88888888888888888888888888888888",
"888888888888888888888888888  OOOO+++++OO  OO++++OOOOO  88888888888888888888888888888888",
"888888888888888888888888888  OOOO+++++OO  OO++++OOOOO  88888888888888888888888888888888",
"88888888888888888888888888888  OOOOOOOOO  OOOOOOOO   8888888888888888888888888888888888",
"88888888888888888888888888888  OOOOOOOOO  OOOOOOOO   8888888888888888888888888888888888",
"8888888888888888888888888888888         88        8888888888888888888888888888888888888",
"8888888888888888888888888888888         88        8888888888888888888888888888888888888",
"888888888888888888888888888888888888888888888888888888888888888888888888888888888888888",
"888888888888888888888888888888888888888888888888888888888888888888888888888888888888888",
"888888888888888888888888888888888888888888888888888888888888888888888888888888888888888",
"888888888888888888888888888888888888888888888888888888888888888888888888888888888888888",
"888888888888888888888888888888888888888888888888888888888888888888888888888888888888888",
"888888888888888888888888888888888888888888888888888888888888888888888888888888888888888",
"888888888888888888888888888888888888888888888888888888888888888888888888888888888888888"
};
