/* XPM */
static char *cefb36a632f64ed99f0dd389ca023d8c[] = {
/* columns rows colors chars-per-pixel */
"64 64 23 1 ",
"  c None",
". c #101410",
"X c #183000",
"o c #294D08",
"O c #423C42",
"+ c #4A4D4A",
"@ c #5A5D5A",
"# c #6B696B",
"$ c #A52400",
"% c #FF4D00",
"& c #C67131",
"* c #5A8239",
"= c #739A5A",
"- c #BD8A42",
"; c #94B67B",
": c #C69A4A",
"> c #CEAA5A",
", c #D6BE6B",
"< c #DECF7B",
"1 c #A5A2A5",
"2 c #FFFFB5",
"3 c #C6BEC6",
"4 c #EFEBF7",
/* pixels */
"                                                                ",
"                                                                ",
"                                                                ",
"                                                                ",
"                                                                ",
"                                                                ",
"                            ........                            ",
"                          ............                          ",
"                         ..............                         ",
"                        ................                        ",
"                       ...................                      ",
"                       ...................                      ",
"                       ...................                      ",
"                    ..................,<..                      ",
"                  ................--..,<..                      ",
"                  ......&&........>>..>,..                      ",
"                  ......OO........>,,4.---.                     ",
"                  ................><<4..--.                     ",
"                 ................,,44...--.                     ",
"                 ..........:....-,,44.----.                     ",
"                ...........>--..>,<44.---.                      ",
"                ........  .---.-,<<24.--.                       ",
"             ..........    ...:,,<222.--.                       ",
"                ....      .....,<<<<,.--.                       ",
"                         XooooX.->>:..--.                       ",
"                        .o****oo.---.---.                       ",
"                       ..o====oo.....--.                        ",
"                      .41*oooo*14.%$.--.                        ",
"                      .41#3333=14.$$.--..                       ",
"                      .4313333114....--...                      ",
"                      .443OOOO344...---.$$.                     ",
"                      .4..13331.4...--..%$.                     ",
"                       ..@133311..#.-...%$.                     ",
"                        .@133311....&...%$.                     ",
"                        .@133311O.&&....%$.                     ",
"                        .@1133331OX---..%$.                     ",
"                        .O@13331@---.-..%$.                     ",
"                        ...11331O,>-.&..%$.                     ",
"                        ...11111+,>&....%$.                     ",
"                        ..*.11.*>>:&....$$.                     ",
"                       .33.*...*::***.33..                      ",
"                       .33.*****&&**=X34..                      ",
"                       .33.*====..===X34..                      ",
"                       .33.*====;;===X34..                      ",
"                       .33.*====;;===X34..                      ",
"                       .33.*====;;===.13.                       ",
"                       .33.*====;;===*o.                        ",
"                       .33.*====;;===*o.                        ",
"                       .33.*====;;===4o.                        ",
"                       .33.333==;;3331.                         ",
"                       .33.344==;;343.                          ",
"                       .33....34441..                           ",
"                        .. .OO.....++.                          ",
"                           .OOOOO++O..                          ",
"                           .OO+++@@+..                          ",
"                           .OOOO++@@@.                          ",
"                           .OOOOOOOOO.                          ",
"                            .OOOOOOOO                           ",
"                             ........                           ",
"                                                                ",
"                                                                ",
"                                                                ",
"                                                                ",
"                                                                "
};
