/* XPM */
static char *result[] = {
/* columns rows colors chars-per-pixel */
"64 64 204 2 ",
"   c #101410",
".  c #161916",
"X  c #1B1D1A",
"o  c #211D13",
"O  c #2C1E12",
"+  c #381810",
"@  c #1E201E",
"#  c #1D2916",
"$  c #1D3408",
"%  c #272215",
"&  c #22251E",
"*  c #222B1E",
"=  c #292819",
"-  c #372816",
";  c #25351B",
":  c #243616",
">  c #213C07",
",  c #222422",
"<  c #262B25",
"1  c #2B2C2B",
"2  c #282926",
"3  c #332E25",
"4  c #2D322C",
"5  c #2C3726",
"6  c #333433",
"7  c #353836",
"8  c #3C373C",
"9  c #3B3C3C",
"0  c #393F36",
"q  c #38322B",
"w  c #5F1A0C",
"e  c #791E09",
"r  c #6B1B0B",
"t  c #4B2C16",
"y  c #41311B",
"u  c #4A371C",
"i  c #563218",
"p  c #5E361A",
"a  c #6C2911",
"s  c #6E3316",
"d  c #453723",
"f  c #703E20",
"g  c #2D441B",
"h  c #334C1E",
"j  c #2D4A15",
"k  c #354927",
"l  c #395325",
"z  c #3E5A28",
"x  c #3F5A31",
"c  c #374130",
"v  c #57401F",
"b  c #5D4523",
"n  c #415F2A",
"m  c #44483D",
"M  c #525039",
"N  c #6A4D25",
"B  c #624824",
"V  c #755529",
"C  c #7E5C2C",
"Z  c #68582E",
"A  c #416224",
"S  c #44632B",
"D  c #47692B",
"F  c #4C6838",
"G  c #4F7330",
"H  c #567C36",
"J  c #557838",
"K  c #5B6B2E",
"L  c #766233",
"P  c #3F3F41",
"I  c #423E42",
"U  c #444344",
"Y  c #474947",
"T  c #4B4C4B",
"R  c #484648",
"E  c #535354",
"W  c #565B54",
"Q  c #5B5C5B",
"!  c #585857",
"~  c #53524F",
"^  c #526E40",
"/  c #5A7A45",
"(  c #5F615F",
")  c #4F6046",
"_  c #7E6B58",
"`  c #5F5E62",
"'  c #605F63",
"]  c #626262",
"[  c #676867",
"{  c #686768",
"}  c #6C6B6C",
"|  c #696A67",
" . c #737273",
".. c #7A7A7C",
"X. c #787A74",
"o. c #657060",
"O. c #872D0F",
"+. c #912306",
"@. c #853113",
"#. c #835F2D",
"$. c #A65E29",
"%. c #8A6B37",
"&. c #956D34",
"*. c #98763C",
"=. c #84602E",
"-. c #A17639",
";. c #A7793A",
":. c #B2652C",
">. c #F54A02",
",. c #C16E30",
"<. c #947644",
"1. c #89796A",
"2. c #5C833C",
"3. c #5E8441",
"4. c #608743",
"5. c #628944",
"6. c #658C49",
"7. c #64874C",
"8. c #69904D",
"9. c #668950",
"0. c #6B8C57",
"q. c #6D9353",
"w. c #72965B",
"e. c #729959",
"r. c #719757",
"t. c #799C64",
"y. c #7DA164",
"u. c #AE803E",
"i. c #B2823E",
"p. c #A58848",
"a. c #AA8847",
"s. c #B68641",
"d. c #B98741",
"f. c #BB8941",
"g. c #B18E4A",
"h. c #B89850",
"j. c #B69858",
"k. c #B7A25A",
"l. c #8B8F79",
"z. c #A08D7B",
"x. c #83A36C",
"c. c #84A86B",
"v. c #8AAC72",
"b. c #86A377",
"n. c #C5A558",
"m. c #CAB669",
"M. c #D6C473",
"N. c #D8C16F",
"B. c #7B7A80",
"V. c #807D80",
"C. c #858586",
"Z. c #8C8B8D",
"A. c #87858B",
"S. c #8B9F82",
"D. c #8E948C",
"F. c #908D93",
"G. c #959495",
"H. c #9D9C9C",
"J. c #979497",
"K. c #988C87",
"L. c #92A986",
"P. c #98B388",
"I. c #8CA084",
"U. c #A1AF9D",
"Y. c #ACA59F",
"T. c #9E9CA3",
"R. c #A19EA2",
"E. c #A4A3A4",
"W. c #AAA6AA",
"Q. c #ACABAC",
"!. c #A7A7A3",
"~. c #A9B4A7",
"^. c #ADAAB3",
"/. c #B3ADB3",
"(. c #B3B3B4",
"). c #B5B2BB",
"_. c #BBB5BD",
"`. c #BCBBBD",
"'. c #B6BBB6",
"]. c #BAC2BA",
"[. c #BDBBC2",
"{. c #C3BCC3",
"}. c #C3C4C4",
"|. c #CCCCCC",
" X c #C7C4CC",
".X c #CBC7D2",
"XX c #CDCED0",
"oX c #D0CDD7",
"OX c #D5CFD8",
"+X c #CDD0D0",
"@X c #D2D3D3",
"#X c #DADADC",
"$X c #D6D2DC",
"%X c #DEDAE5",
"&X c #D9D5E0",
"*X c #E0DEE6",
"=X c #E1DDE9",
"-X c #E1E1E4",
";X c #E5E2ED",
":X c #ECECEC",
">X c #E8E4F0",
",X c #EDEAF5",
"<X c None",
"1X c #F3F3F3",
/* pixels */
"<X<X<X<X<X<X<X<X<X<X<X<X<X<X<X<X<X<X<X<X<X<X<X<X<X<X<X<X<X<X<X<X<X<X<X<X<X<X<X<X<X<X<X<X<X<X<X<X<X<X<X<X<X<X<X<X<X<X<X<X<X<X<X<X",
"<X<X<X<X<X<X<X<X<X<X<X<X<X<X<X<X<X<X<X<X<X<X<X<X<X<X<X<X<X<X<X<X<X<X<X<X<X<X<X<X<X<X<X<X<X<X<X<X<X<X<X<X<X<X<X<X<X<X<X<X<X<X<X<X",
"<X<X<X<X<X<X<X<X<X<X<X<X<X<X<X<X<X<X<X<X<X<X<X<X<X<X<X<X<X<X<X<X<X<X<X<X<X<X<X<X<X<X<X<X<X<X<X<X<X<X<X<X<X<X<X<X<X<X<X<X<X<X<X<X",
"<X<X<X<X<X<X<X<X<X<X<X<X<X<X<X<X<X<X<X<X<X<X<X<X<X<X<X<X<X<X<X<X<X<X<X<X<X<X<X<X<X<X<X<X<X<X<X<X<X<X<X<X<X<X<X<X<X<X<X<X<X<X<X<X",
"<X<X<X<X<X<X<X<X<X<X<X<X<X<X<X<X<X<X<X<X<X<X<X<X<X<X<X<XD.} } } } } } !.<X<X<X<X<X<X<X<X<X<X<X<X<X<X<X<X<X<X<X<X<X<X<X<X<X<X<X<X",
"<X<X<X<X<X<X<X<X<X<X<X<X<X<X<X<X<X<X<X<X<X<X<X<X<X<X`.'.E             | `.`.<X<X<X<X<X<X<X<X<X<X<X<X<X<X<X<X<X<X<X<X<X<X<X<X<X<X",
"<X<X<X<X<X<X<X<X<X<X<X<X<X<X<X<X<X<X<X<X<X<X<X<X<XH.                        (.<X<X<X<X<X<X<X<X<X<X<X<X<X<X<X<X<X<X<X<X<X<X<X<X<X",
"<X<X<X<X<X<X<X<X<X<X<X<X<X<X<X<X<X<X<X<X<X<X<X<X( ,                         1 8 (.<X<X<X<X<X<X<X<X<X<X<X<X<X<X<X<X<X<X<X<X<X<X<X",
"<X<X<X<X<X<X<X<X<X<X<X<X<X<X<X<X<X<X<X<X<X<X<XC.1                               ] H.<X<X<X<X<X<X<X<X<X<X<X<X<X<X<X<X<X<X<X<X<X<X",
"<X<X<X<X<X<X<X<X<X<X<X<X<X<X<X<X<X<X<X<X<X<X<X                                    Q <X<X<X<X<X<X<X<X<X<X<X<X<X<X<X<X<X<X<X<X<X<X",
"<X<X<X<X<X<X<X<X<X<X<X<X<X<X<X<X<X<X<X<X<X<X|.                                    Q <X<X<X<X<X<X<X<X<X<X<X<X<X<X<X<X<X<X<X<X<X<X",
"<X<X<X<X<X<X<X<X<X<X<X<X<X<X<X .E E Q <X<XG.U                                     & E <X<X! E E C.<X<X<X<X<X<X<X<X<X<X<X<X<X<X<X",
"<X<X<X<X<X<X<X<X<X<X<X<X<X<XE.d     @ J.!.W                                           D.Z..     T !.(.<X<X<X<X<X<X<X<X<X<X<X<X<X",
"<X<X<X<X<X<X<X<X<X<X<X<X<X$XX       . p p -                                           i i           [ <X<X<X<X<X<X<X<X<X<X<X<X<X",
"<X<X<X<X<X<X<X<X<X<X<X<X<X@X.       o :.:.f                                           $.$.          [ <X<X<X<X<X<X<X<X<X<X<X<X<X",
"<X<X<X<X<X<X<X<X<X<X<X<X<X@X.         t i o                                           t t           [ <X<X<X..<X<X<X<X<X<X<X<X<X",
"<X<X<X<X<X<X<X<X<X<X<X<X@XR..       , !.'.'                                         . Y.H..         T `.`.Y.<._.<X<X<X<X<X<X<X<X",
"<X<X<X<X<X<X<X<X<X<X<X<XZ.          6 <X<XT.!                                     < [ #X#XX               V s.y |.<X<X<X<X<X<X<X",
"<X<X<X<X<X<X<X<X<X<X<X<XD.          4 <X<X<X|.                                    Q <X<X#XX               V s.y |.<X<X<X<X<X<X<X",
"<X<X<X<X<X<X<X<X<X<X<XG.T           4 <X<X<X+X.                                   ` <X<X#X@               V i.y |.<X<X<X<X<X<X<X",
"<X<X<X<X<X<X<X<X<X<X X6           ~ R.<X<X<X<XH.6                               } ~.<X<X<XH.0             B &.- |.<X<X<X<X<X<X<X",
"<X<X<X<X<X<X<X<X<X<XY .     X T T A.<X<X<X<X<X<XT                               Q.<X<X<X<X<X .T R           X Y +X<X<X<X<X<X<X<X",
"<X<X<X<X<X<X<X<X<X<X<X9     Y <X<X<XQ E E E E E X           .                   8 E E W ! [ :X1X*X4         Y <X<X<X<X<X<X<X<X<X",
"<X<X<X<X<X<X<X<X<X<X<X<X|.Q.6 E.!.J.; n D g g S # r e % *.p.p.p.p.a.p.<.o e w   k S $ l z 5 E.!.H.,     =.#.Y <X<X<X<X<X<X<X<X<X",
"<X<X<X<X<X<X<X<X<X<X<X<X<X}.! & ; g > J 3.l A 3.x s +.@.g.h.h.h.h.h.h.a.O.+.N k F 3.j G J $ g : < Q ! X ;.-.Y <X<X<X<X<X<X<X<X<X",
"<X<X<X<X<X<X<X<X<X<X<X<X(. .Q.m D J x w.t.F / t.0.F O.>.a o o o o o o O.>.a ^ r.t.w.n 0.0.x H z W (.W.1 -.*.! <X<X<X<X<X<X<X<X<X",
"<X<X<X<X<X<X<X<X<X<X<X<XF.B.|.) 3.L.%X%X*X*X%X&X! F K a +             + a K S k E.%X%X=X&X&Xy.J o..X}.6 u J.<X<X<X<X<X<X<X<X<X<X",
"<X<X<X<X<X<X<X<X<X<X<X<XD.Z.%X(.'.].).).).).).).^.t.H A ^ ^ ^ ^ ^ ^ J F z H D.^.^.).).).[.[.[.).'.%X$X6   H.<X<X<X<X<X<X<X<X<X<X",
"<X<X<X<X<X<X<X<X<X<X<X<XE.T.=X=X=X.X2 9 P T I R >X~.2.2.r.e.e.e.e.e.e.r.H 2.}.,X[.@ T U 7 d &X=X=X*X&XZ % H.<X<X<X<X<X<X<X<X<X<X",
"<X<X<X<X<X<X<X<X<X<X<X<X<X<XU 9 P 8 @ G.R.'.H.~ =X~.2.2.r.e.e.e.e.e.e.q.2.2.].,X[.R [.W.A.X P P 8 8 ~ i.N H.<X<X<X<X<X<X<X<X<X<X",
"<X<X<X<X<X<X<X<X<X<X<X<X<X<X<X<X<X<X1 J.E.[./.Z.A.[.}.3.4.5.5.5.6.5.5.4.7.|./.A.A.J.{.^.Z.9 <XH.u ;.u.i.N H.<X<X<X<X<X<X<X<X<X<X",
"<X<X<X<X<X<X<X<X<X<X<X<X<X<X<X<X<X<X6 J.E.)./.R.6 R.}.!.U.U.U.U.U.U.U.U.!.}.F.   .W._.W.Z.m <X(.v i.i.-.K.<X<X<X<X<X<X<X<X<X<X<X",
"<X<X<X<X<X<X<X<X<X<X<X<X<X<X<X<X<X<X6 J.E.W.R.T.6 X B.;X>X>X>X>X>X>X>X>X;X' .    .E.!.E.Z.U <X(.i f.i.3 <X<X<X<X<X<X<X<X<X<X<X<X",
"<X<X<X<X<X<X<X<X<X<X<X<X<X<X<X<X<X<X6 G.E._.).H.6 c T E E E E E E E E E E T 6    .E.{.^.Z.Y <X/.v f.s.3 <X<X<X<X<X<X<X<X<X<X<X<X",
"<X<X<X<X<X<X<X<X<X<X<X<X<X<X<X<X<X<X6 G.E.[.[.T.6 P T Y R R E E E E T Y Y T 7    .W.{.^.H.C.E.z.&.C V = <X<X<X<X<X<X<X<X<X<X<X<X",
"<X<X<X<X<X<X<X<X<X<X<X<X<X<X<X<X<X<X6 G.E._.).F.c c T Q Q Q { } { { ( Q W Y 7 : | J.`./.W.R.9 #.*.B v N |.<X<X<X<X<X<X<X<X<X<X<X",
"<X<X<X<X<X<X<X<X<X<X<X<X<X<X<X<X<X<X6 G.R._.R.& A g 7 Q Q Q { { } } ( Q W 3 h A l U R._._.R.m - B i.f.f.Z R.<X<X<X<X<X<X<X<X<X<X",
"<X<X<X<X<X<X<X<X<X<X<X<X<X<X<X<X<X<X1 U T ! R % G 7.3.< < 1 ' } [ [ Y 1 4 7.4.H n 9 R._.W.~ m.m.k.b N i.N H.<X<X<X<X<X<X<X<X<X<X",
"<X<X<X<X<X<X<X<X<X<X<X<X<X<X<X<X<X<X4 %.*.<.L # H 8.9.< T.W.} E ~ ~ G.G.* q.6.2.S 4 X.F.K.%.M.N.n.= - %.Y.<X<X<X<X<X<X<X<X<X<X<X",
"<X<X<X<X<X<X<X<X<X<X<X<X<X<X<X<X<X<X| j.n.n.p.# 2.0.9.7 %X,XB.* 5 < .XoX< q.8.2.S , ] 9 N f.M.m.h.% 2 [ <X<X<X<X<X<X<X<X<X<X<X<X",
"<X<X<X<X<X<X<X<X<X<X<X<X<X<X<X<X<X<X<XX.q h.p.: 2.8.9.7 %X,XS.6.q.2.XXoX< q.6.2.S Q 1XG.& d s.f.u.= [ <X<X<X<X<X<X<X<X<X<X<X<X<X",
"<X<X<X<X<X<X<X<X<X<X<X<X<X<X<X<X<X<X<X<X<Xz.Z z 6.y.t.7 %X,XS.6.r.3.XXoX5 x.y.q./ F D.<X<X<X1.N 1.<X<X<X<X<X<X<X<X<X<X<X<X<X<X<X",
"<X<X<X<X<X<X<X<X<X<X<X<X<X<X<X<X<X<X<X<X<XC.j G e.v.x.7 %X,XS.6.r.3.+XoX4 v.c.e.6.D # <X<X<XE.J.(.<X<X<X<X<X<X<X<X<X<X<X<X<X<X<X",
"<X<X<X<X<X<X<X<X<X<X<X<X<X<X<X<X<X<X<X<X<XC.l 2.e.v.x.7 %X,XS.6.r.3.XXXX4 v.c.e.8.H , <X<X<X<X<X<X<X<X<X<X<X<X<X<X<X<X<X<X<X<X<X",
"<X<X<X<X<X<X<X<X<X<X<X<X<X<X<X<X<X<X<X<X<XA.l 2.q.v.x.7 %X,XS.6.e.3.+XoX5 v.c.e.8.H * <X<X<X<X<X<X<X<X<X<X<X<X<X<X<X<X<X<X<X<X<X",
"<X<X<X<X<X<X<X<X<X<X<X<X<X<X<X<X<X<X<X<X<XC.l 2.e.v.x.7 %X,XS.6.r.3.XXoX4 v.c.e.8.H * <X<X<X<X<X<X<X<X<X<X<X<X<X<X<X<X<X<X<X<X<X",
"<X<X<X<X<X<X<X<X<X<X<X<X<X<X<X<X<X<X<X<X<XC.l 2.r.v.x.7 %X,XS.6.e.2.XXoX5 v.c.e.8.H # <X<X<X<X<X<X<X<X<X<X<X<X<X<X<X<X<X<X<X<X<X",
"<X<X<X<X<X<X<X<X<X<X<X<X<X<X<X<X<X<X<X<X<XC.l 2.r.v.x.7 %X,XS.6.e.2.XXoX4 v.c.e.8.H < <X<X<X<X<X<X<X<X<X<X<X<X<X<X<X<X<X<X<X<X<X",
"<X<X<X<X<X<X<X<X<X<X<X<X<X<X<X<X<X<X<X<X<XC.l 2.e.v.x.7 %X,XS.6.r.3.+XoX4 v.c.e.8.J * <X<X<X<X<X<X<X<X<X<X<X<X<X<X<X<X<X<X<X<X<X",
"<X<X<X<X<X<X<X<X<X<X<X<X<X<X<X<X<X<X<X<X<XC. .~.y.v.x.7 %X,XS.6.e.2.+XXX4 v.c.e.L.~.6 <X<X<X<X<X<X<X<X<X<X<X<X<X<X<X<X<X<X<X<X<X",
"<X<X<X<X<X<X<X<X<X<X<X<X<X<X<X<X<X<X<X<X<XH.R.%XL.P.L.7 %X,XS.6.q.3.XXoX5 P.P.b.].&X| <X<X<X<X<X<X<X<X<X<X<X<X<X<X<X<X<X<X<X<X<X",
"<X<X<X<X<X<X<X<X<X<X<X<X<X<X<X<X<X<X<X<X<X<X|.` -X,XoX0 %X,XI.3.3.3.+XoXP %X>X,X_.} <X<X<X<X<X<X<X<X<X<X<X<X<X<X<X<X<X<X<X<X<X<X",
"<X<X<X<X<X<X<X<X<X<X<X<X<X<X<X<X<X<X<X<X<X<X<X<XF.Z...8 %X,X$X@X@X$X>XoX1 B.F.Z.(.<X<X<X<X<X<X<X<X<X<X<X<X<X<X<X<X<X<X<X<X<X<X<X",
"<X<X<X<X<X<X<X<X<X<X<X<X<X<X<X<X<X<X<X<X<X<X<X@XE 1 2 9 [..X.X.X.X.X.X^.6 2 6 6 H.<X<X<X<X<X<X<X<X<X<X<X<X<X<X<X<X<X<X<X<X<X<X<X",
"<X<X<X<X<X<X<X<X<X<X<X<X<X<X<X<X<X<X<X<X<X<XXX, ! T R Y 2 @ @ X X X @ 4 T I T Q Y ' <X<X<X<X<X<X<X<X<X<X<X<X<X<X<X<X<X<X<X<X<X<X",
"<X<X<X<X<X<X<X<X<X<X<X<X<X<X<X<X<X<X<X<X<X<XoX@ I I I Y Y Y P 6 . P U Y T U I I 6 ] <X<X<X<X<X<X<X<X<X<X<X<X<X<X<X<X<X<X<X<X<X<X",
"<X<X<X<X<X<X<X<X<X<X<X<X<X<X<X<X<X<X<X<X<X<X<X{.Y 8 I Y R I I 6 X I I R U P 8 1 Z.+X<X<X<X<X<X<X<X<X<X<X<X<X<X<X<X<X<X<X<X<X<X<X",
"<X<X<X<X<X<X<X<X<X<X<X<X<X<X<X<X<X<X<X<X<X<X<X<XZ.! 8 8 8 8 I Q  .I 8 8 P P ' ..}.<X<X<X<X<X<X<X<X<X<X<X<X<X<X<X<X<X<X<X<X<X<X<X",
"<X<X<X<X<X<X<X<X<X<X<X<X<X<X<X<X<X<X<X<X<X<X<X<X<XE.6 1 4 4 1 Q.<X! 1 4 1 1 [.<X<X<X<X<X<X<X<X<X<X<X<X<X<X<X<X<X<X<X<X<X<X<X<X<X",
"<X<X<X<X<X<X<X<X<X<X<X<X<X<X<X<X<X<X<X<X<X<X<X<X<X<X<X<X<X<X<X<X<X<X<X<X<X<X<X<X<X<X<X<X<X<X<X<X<X<X<X<X<X<X<X<X<X<X<X<X<X<X<X<X",
"<X<X<X<X<X<X<X<X<X<X<X<X<X<X<X<X<X<X<X<X<X<X<X<X<X<X<X<X<X<X<X<X<X<X<X<X<X<X<X<X<X<X<X<X<X<X<X<X<X<X<X<X<X<X<X<X<X<X<X<X<X<X<X<X",
"<X<X<X<X<X<X<X<X<X<X<X<X<X<X<X<X<X<X<X<X<X<X<X<X<X<X<X<X<X<X<X<X<X<X<X<X<X<X<X<X<X<X<X<X<X<X<X<X<X<X<X<X<X<X<X<X<X<X<X<X<X<X<X<X",
"<X<X<X<X<X<X<X<X<X<X<X<X<X<X<X<X<X<X<X<X<X<X<X<X<X<X<X<X<X<X<X<X<X<X<X<X<X<X<X<X<X<X<X<X<X<X<X<X<X<X<X<X<X<X<X<X<X<X<X<X<X<X<X<X",
"<X<X<X<X<X<X<X<X<X<X<X<X<X<X<X<X<X<X<X<X<X<X<X<X<X<X<X<X<X<X<X<X<X<X<X<X<X<X<X<X<X<X<X<X<X<X<X<X<X<X<X<X<X<X<X<X<X<X<X<X<X<X<X<X"
};
