/* XPM */
static char *U291dGhfUg__[] = {
/* columns rows colors chars-per-pixel */
"64 64 215 2 ",
"   c #101410",
".  c #151A14",
"X  c #1B1B12",
"o  c #1A1D1A",
"O  c #37160F",
"+  c #221D12",
"@  c #2D1A12",
"#  c #351A11",
"$  c #1C3407",
"%  c #1B2416",
"&  c #152707",
"*  c #282516",
"=  c #352A18",
"-  c #233419",
";  c #27391B",
":  c #26381A",
">  c #35321B",
",  c #242624",
"<  c #272927",
"1  c #2B2C2B",
"2  c #292A28",
"3  c #342D24",
"4  c #2E312D",
"5  c #2A3525",
"6  c #31312D",
"7  c #333432",
"8  c #3B363B",
"9  c #3C3B3C",
"0  c #393A36",
"q  c #2F2F30",
"w  c #551A0E",
"e  c #4F1C0F",
"r  c #681A07",
"t  c #44341B",
"y  c #4B381C",
"u  c #4E3119",
"i  c #6C220E",
"p  c #77250D",
"a  c #7F291D",
"s  c #483E22",
"d  c #463D32",
"f  c #2A4711",
"g  c #354D1D",
"h  c #355619",
"j  c #334624",
"k  c #3C5529",
"l  c #3D413C",
"z  c #3E4837",
"x  c #79441F",
"c  c #584726",
"v  c #51522F",
"b  c #694E26",
"n  c #63522C",
"m  c #77582A",
"M  c #625C35",
"N  c #7E4820",
"B  c #456729",
"V  c #4D7031",
"C  c #507433",
"Z  c #567A3A",
"A  c #4C6938",
"S  c #756639",
"D  c #726B39",
"F  c #3E3E40",
"G  c #423D42",
"H  c #444344",
"J  c #484648",
"K  c #4C4D4C",
"L  c #454844",
"P  c #4E514E",
"I  c #4A5843",
"U  c #4F4E51",
"Y  c #535453",
"T  c #5B5C5B",
"R  c #575A57",
"E  c #554C4A",
"W  c #5B7845",
"Q  c #54674A",
"!  c #6D724E",
"~  c #5F5E62",
"^  c #646465",
"/  c #6B6B6C",
"(  c #676669",
")  c #737374",
"_  c #79777B",
"`  c #7A7A7A",
"'  c #767976",
"]  c #726F6D",
"[  c #87270B",
"{  c #9A2908",
"}  c #A62802",
"|  c #A9330A",
" . c #B63709",
".. c #C13B09",
"X. c #CA3600",
"o. c #9E4319",
"O. c #834B21",
"+. c #9A5827",
"@. c #84612E",
"#. c #926A33",
"$. c #88713B",
"%. c #946F37",
"&. c #A27639",
"*. c #AC7E3C",
"=. c #AB612A",
"-. c #A65E29",
";. c #D4440B",
":. c #E84604",
">. c #F64A01",
",. c #957E43",
"<. c #877556",
"1. c #90754C",
"2. c #AC7F43",
"3. c #837E78",
"4. c #917767",
"5. c #5A813A",
"6. c #5E8541",
"7. c #64864E",
"8. c #668C4A",
"9. c #638A46",
"0. c #698D52",
"q. c #6D8D59",
"w. c #6D9453",
"e. c #73995A",
"r. c #71935B",
"t. c #718F5F",
"y. c #78906D",
"u. c #7DA164",
"i. c #B3833E",
"p. c #AF803D",
"a. c #978746",
"s. c #A78C4B",
"d. c #BC8A42",
"f. c #B78640",
"g. c #B99A52",
"h. c #B49650",
"j. c #BAA45C",
"k. c #819E6B",
"l. c #958877",
"z. c #81A668",
"x. c #8BAD73",
"c. c #93B37A",
"v. c #BDA961",
"b. c #C49E52",
"n. c #CDAB5C",
"m. c #C5A256",
"M. c #CFB262",
"N. c #D3B867",
"B. c #D1B073",
"V. c #CEAF63",
"C. c #D3C474",
"Z. c #DAC673",
"A. c #D9C97A",
"S. c #D7C06E",
"D. c #827D83",
"F. c #838283",
"G. c #88868A",
"H. c #908D90",
"J. c #949295",
"K. c #95939A",
"L. c #9D9B9D",
"P. c #999599",
"I. c #94908F",
"U. c #A89D8E",
"Y. c #9BB988",
"T. c #99A994",
"R. c #91AA85",
"E. c #A5A897",
"W. c #A1B49B",
"Q. c #9E9BA2",
"!. c #A29DA2",
"~. c #A5A2A5",
"^. c #ABABAD",
"/. c #A7A6A9",
"(. c #ABB5A9",
"). c #B4AEB4",
"_. c #B5B4B5",
"`. c #BABABB",
"'. c #B8B7B9",
"]. c #AEACB0",
"[. c #D7BD97",
"{. c #BEC2BE",
"}. c #B7C2B5",
"|. c #B1C5A6",
" X c #DAC685",
".X c #C1C0BF",
"XX c #BBB8C1",
"oX c #C1BBC2",
"OX c #C3BFC9",
"+X c #C3C4C3",
"@X c #C6C3CD",
"#X c #CBCBCB",
"$X c #C8C8CC",
"%X c #CECBD5",
"&X c #D3CED6",
"*X c #D3D4D4",
"=X c #D6D5DC",
"-X c #DBDCDB",
";X c #D5D9D7",
":X c #CFD0D4",
">X c #E6E0DD",
",X c #DDDCE4",
"<X c #E2DEE9",
"1X c #E1DFE7",
"2X c #E4E4E4",
"3X c #E5E2EC",
"4X c #E9E5EE",
"5X c #ECECEB",
"6X c #E7E8E7",
"7X c #EAE6F1",
"8X c #EFEBF7",
"9X c #F3F3F3",
"0X c None",
"qX c #F7F8F7",
"wX c #E2D9D1",
/* pixels */
"0X0X0X0X0X0X0X0X0X0X0X0X0X0X0X0X0X0X0X0X0X0X0X0X0X0X0X0X0X0X0X0X0X0X0X0X0X0X0X0X0X0X0X0X0X0X0X0X0X0X0X0X0X0X0X0X0X0X0X0X0X0X0X0X",
"0X0X0X0X0X0X0X0X0X0X0X0X0X0X0X0X0X0X0X0X0X0X0X0X0X0X0X0X0X0X0X0X0X0X0X0X0X0X0X0X0X0X0X0X0X0X0X0X0X0X0X0X0X0X0X0X0X0X0X0X0X0X0X0X",
"0X0X0X0X0X0X0X0X0X0X0X0X0X0X0X0X0X0X0X0X0X0X0X0X0X0X0X0X0X0X0X0X0X0X0X0X0X0X0X0X0X0X0X0X0X0X0X0X0X0X0X0X0X0X0X0X0X0X0X0X0X0X0X0X",
"0X0X0X0X0X0X0X0X0X0X0X0X0X0X0X0X0X0X0X0X0X0X0X0X0X0X0X0X0X0X0X0X0X0X0X0X0X0X0X0X0X0X0X0X0X0X0X0X0X0X0X0X0X0X0X0X0X0X0X0X0X0X0X0X",
"0X0X0X0X0X0X0X0X0X0X0X0X0X0X0X0X0X0X0X0X0X0X0X0X0X0X0X0X0X0X0X0X0X0X0X0X0X0X0X0X0X0X0X0X0X0X0X0X0X0X0X0X0X0X0X0X0X0X0X0X0X0X0X0X",
"0X0X0X0X0X0X0X0X0X0X0X0X0X0X0X0X0X0X0X0X0X0X0X0X0X0X0X0X0X0X0X0X0X0X0X0X0X0X0X0X0X0X0X0X0X0X0X0X0X0X0X0X0X0X0X0X0X0X0X0X0X0X0X0X",
"0X0X0X0X0X0X0X0X0X0X0X0X0X0X0X0X0X0X0X0X0X0X0X0X0X0X0X0X                0X0X0X0X0X0X0X0X0X0X0X0X0X0X0X0X0X0X0X0X0X0X0X0X0X0X0X0X",
"0X0X0X0X0X0X0X0X0X0X0X0X0X0X0X0X0X0X0X0X0X0X0X0X0X0X                        0X0X0X0X0X0X0X0X0X0X0X0X0X0X0X0X0X0X0X0X0X0X0X0X0X0X",
"0X0X0X0X0X0X0X0X0X0X0X0X0X0X0X0X0X0X0X0X0X0X0X0X0X                              0X0X0X0X0X0X0X0X0X0X0X0X0X0X0X0X0X0X0X0X0X0X0X0X",
"0X0X0X0X0X0X0X0X0X0X0X0X0X0X0X0X0X0X0X0X0X0X0X0X0X                              0X0X0X0X0X0X0X0X0X0X0X0X0X0X0X0X0X0X0X0X0X0X0X0X",
"0X0X0X0X0X0X0X0X0X0X0X0X0X0X0X0X0X0X0X0X0X0X0X0X                                  0X0X0X0X0X0X0X0X0X0X0X0X0X0X0X0X0X0X0X0X0X0X0X",
"0X0X0X0X0X0X0X0X0X0X0X0X0X0X0X0X0X0X0X0X0X0X0X0X                                  0X0X0X0X0X0X0X0X0X0X0X0X0X0X0X0X0X0X0X0X0X0X0X",
"0X0X0X0X0X0X0X0X0X0X0X0X0X0X0X0X      0X0X0X                                          0X0X0X    0X0X0X0X0X0X0X0X0X0X0X0X0X0X0X0X",
"0X0X0X0X0X0X0X0X0X0X0X0X0X0X0X0X      0X0X0X          i.m.    n.m.m.    m.i.          0X0X        0X0X0X0X0X0X0X0X0X0X0X0X0X0X0X",
"0X0X0X0X0X0X0X0X0X0X0X0X0X0X0X        O.=.x           b.S.    N.N.N.    S.b.          O.+.          0X0X0X0X0X0X0X0X0X0X0X0X0X0X",
"0X0X0X0X0X0X0X0X0X0X0X0X0X0X0X        O.-.x       c $.n.U.H.J.E.N.P.J.U.U.V.M         x +.          0X0X0X0X0X0X0X0X0X0X0X0X0X0X",
"0X0X0X0X0X0X0X0X0X    0X0X0X0X        0X0X0X      1.n.C.<X4X4X>XN.6X4X2X<XM.s..       0X0X          0X0X0X0X0X0X0X0X0X0X0X0X0X0X",
"0X0X0X0X0X0X0X0X  *.i.  0X0X          0X0X0X    . $.B.6XL.      A.      ) 4Xs.  .     0X0X0X          0X0X0X0X0X0X0X0X0X0X0X0X0X",
"0X0X0X0X0X0X0X0X  *.b.                0X0X0X0X  a.s.  4XK.      A.      ~ 7X  h.a.  0X0X0X0X            0X0X0X0X0X0X0X0X0X0X0X0X",
"0X0X0X0X0X0X0X0X  *.i.                0X0X0X0X  m.j.  <XK.      A.      ~ 7X  N.j.  0X0X0X0X            0X0X0X0X0X0X0X0X0X0X0X0X",
"0X0X0X0X0X0X0X0X  *.i.b.            0X0X0X0X0X  j.M.B.7XP.      A.      ^ 7Xn.N.j.  0X0X0X0X0X            0X0X0X0X0X0X0X0X0X0X0X",
"0X0X0X0X0X0X0X0X      p.#.        0X0X0X0X0X0X0X  ,.n. XC.C.C.S.A.C.C.Z. XN.h.c   0X0X0X0X0X0X              0X0X0X0X0X0X0X0X0X0X",
"0X0X0X0X0X0X0X0X0X0X  *.#.    0X0X0X0X0X0X0X0X0X0X  s.V.N.A.Z.Z.Z.C.Z.Z.M.s.S . 0X0X0X0X0X0X0X0X0X          0X0X0X0X0X0X0X0X0X0X",
"0X0X0X0X0X0X0X0X0X0X  *.#.  0X0X0X0X                  g.V.N.N.N.N.N.N.M.g.m                 0X0X0X0X0X0X0X0X0X0X0X0X0X0X0X0X0X0X",
"0X0X0X0X0X0X0X0X0X0X  *.#.          B B 5.B f Z j i {     i.b.m.n.n.b.i.  { [ . j Z f B C $           0X0X0X0X0X0X0X0X0X0X0X0X0X",
"0X0X0X0X0X0X0X0X0X0X  *.i.&.  & g C f 6.e.C k w.0.Z i ;.o.              :.{ c 0.q.w.k Z 8.f V B z Q.Q.  0X0X0X0X0X0X0X0X0X0X0X0X",
"0X0X0X0X0X0X0X0X0X0X0X  &.i.  $ B 0./.(.}._.^.}.y.Q v  . . .p w  .e p  ...m A W y.}.^._.}.^.y.C I .X`.  0X0X0X0X0X0X0X0X0X0X0X0X",
"0X0X0X0X0X0X0X0X0X0X0X  @.i.  Y q.R.,X3X<X1X<X<XG.! Z j ;.:.| p :.i | :.s C W ~ H.<X<X1X1X<XW.y.' *X%X  0X0X0X0X0X0X0X0X0X0X0X0X",
"0X0X0X0X0X0X0X0X0X0X0X  @.i.  $X4X3X            =X@X5.w.A # @ O r O @ s e.6.W.7X%XF F F F H &X7X7X7X3X  0X0X0X0X0X0X0X0X0X0X0X0X",
"0X0X0X0X0X0X0X0X0X0X0X  m 2.  ) G.D.  ) H.Q.Q.  &X$X6.r.0.7.8.W * W 7.7.e.9.~.8X%Xq Q.Q.F.  _ G.G.G.H.  0X0X0X0X0X0X0X0X0X0X0X0X",
"0X0X0X0X0X0X0X0X0X0X0X  @.i.      v   l.~._.'.  XX`.W.r.w.w.7.! | ! 7.w.w.T.(.@X).] '._.J.            0X0X0X0X0X0X0X0X0X0X0X0X0X",
"0X0X0X0X0X0X0X0X0X0X0X  1.f.b.    a.  ` ~.).oX!.  K.1Xy.r.r.A [ >.p A q.t.:XOXo T /.XX).K.  0X0X0X0X0X0X0X0X0X0X0X0X0X0X0X0X0X0X",
"0X0X0X0X0X0X0X0X0X0X0X0X    d.    a.  D.~.'..X~.Y   ( 1X7X7XQ.[ >.i /.7X7XH.F   ~ ~./.~.K.  0X0X0X0X0X0X0X0X0X0X0X0X0X0X0X0X0X0X",
"0X0X0X0X0X0X0X0X0X0X0X0X0X  i.    a.  F.!._.XX~.Y   P J.K.K.~ [ >.} 4.K.K.~ 7   T /.'.].P.  0X0X0X0X0X0X0X0X0X0X0X0X0X0X0X0X0X0X",
"0X0X0X0X0X0X0X0X0X0X0X0X0X  &.        G.^.).'./.Y   K 7 7 q , p :...{ . 7 L l   T /.oX).P.  0X0X0X0X0X0X0X0X0X0X0X0X0X0X0X0X0X0X",
"0X0X0X0X0X0X0X0X0X0X0X0X      &.&.    P.oX)./.Q.Y   K R T T 8 w } >. ., R P l . T !.oX).J.  0X0X0X0X0X0X0X0X0X0X0X0X0X0X0X0X0X0X",
"0X0X0X0X0X0X0X0X0X0X0X  1.p.i.m     g.1.K D.P.  k j   R T T 9 e } >. ., ~ 0 ; B k K '.).P.  0X0X0X0X0X0X0X0X0X0X0X0X0X0X0X0X0X0X",
"0X0X0X0X0X0X0X0X0X0X0X  @.i.@.a.%.  m.1.  Y   . B C W   H F K E p >. .o d Q Z V B , D.3.(   0X0X0X0X0X0X0X0X0X0X0X0X0X0X0X0X0X0X",
"0X0X0X0X0X0X0X0X0X0X0X0X  &.  g.j.  h.<.K     . C 8.w.  ~ ' ( Y # :. .  . 7.w.5.V X c n c   0X0X0X0X0X0X0X0X0X0X0X0X0X0X0X0X0X0X",
"0X0X0X0X0X0X0X0X0X0X0X0X0X  X &.m.Z.v 3.!.    . C 9.r.  @X8XQ.o @ [ a 1 . 7.w.5.V > b.n.g.  0X0X0X0X0X0X0X0X0X0X0X0X0X0X0X0X0X0X",
"0X0X0X0X0X0X0X0X0X0X0X0X0X0X  &.d.g.      0X0X  C 8.w.  @X8X(.5.0.c Q.%X7 7.w.5.C = m.s.  0X0X0X0X0X0X0X0X0X0X0X0X0X0X0X0X0X0X0X",
"0X0X0X0X0X0X0X0X0X0X0X0X0X0X0X  #.%.0X0X0X0X  k 5.e.u.  @X8X(.6.e.j /.,XF r.e.w.Z g ,.  0X0X0X0X0X0X0X0X0X0X0X0X0X0X0X0X0X0X0X0X",
"0X0X0X0X0X0X0X0X0X0X0X0X0X0X0X0X    0X0X0X0X  B w.u.c.  @X8X(.6.e.z ^.<X0 k.x.e.0.B   0X0X0X0X0X0X0X0X0X0X0X0X0X0X0X0X0X0X0X0X0X",
"0X0X0X0X0X0X0X0X0X0X0X0X0X0X0X0X0X0X0X0X0X0X  5.w.u.c.  @X8X(.6.6.5.}.<XF k.x.e.w.Z   0X0X0X0X0X0X0X0X0X0X0X0X0X0X0X0X0X0X0X0X0X",
"0X0X0X0X0X0X0X0X0X0X0X0X0X0X0X0X0X0X0X0X0X0X  5.w.z.c.  $X8X,X=X=X;X1X<XF k.x.e.w.5.  0X0X0X0X0X0X0X0X0X0X0X0X0X0X0X0X0X0X0X0X0X",
"0X0X0X0X0X0X0X0X0X0X0X0X0X0X0X0X0X0X0X0X0X0X  5.w.z.c.W ^.OXOXOXOXOXOXXX! z.x.e.w.5.  0X0X0X0X0X0X0X0X0X0X0X0X0X0X0X0X0X0X0X0X0X",
"0X0X0X0X0X0X0X0X0X0X0X0X0X0X0X0X0X0X0X0X0X0X  5.w.u.Y.Y.! . 1 q . 7 1 v T.c.x.e.w.5.  0X0X0X0X0X0X0X0X0X0X0X0X0X0X0X0X0X0X0X0X0X",
"0X0X0X0X0X0X0X0X0X0X0X0X0X0X0X0X0X0X0X0X0X0X  5.e.u.Y.7XK.. D.H.< J._ ~ <X|.x.e.w.5.  0X0X0X0X0X0X0X0X0X0X0X0X0X0X0X0X0X0X0X0X0X",
"0X0X0X0X0X0X0X0X0X0X0X0X0X0X0X0X0X0X0X0X0X0X  5.{.;X*XQ.Q.!.!.P.1 P.~.!.J.$X;X*X}.5.  0X0X0X0X0X0X0X0X0X0X0X0X0X0X0X0X0X0X0X0X0X",
"0X0X0X0X0X0X0X0X0X0X0X0X0X0X0X0X0X0X0X0X0X0X  T.$X%X$X_ ].OX!.D., F./.oX) XX%X%XOXT.  0X0X0X0X0X0X0X0X0X0X0X0X0X0X0X0X0X0X0X0X0X",
"0X0X0X0X0X0X0X0X0X0X0X0X0X0X0X0X0X0X0X0X0X0X  3X_   H '.XXoXD..   o G.oXoX/ o o F.1X  0X0X0X0X0X0X0X0X0X0X0X0X0X0X0X0X0X0X0X0X0X",
"0X0X0X0X0X0X0X0X0X0X0X0X0X0X0X0X0X0X0X0X0X0X0X      F J J J G 8   8 G J J G 7       0X0X0X0X0X0X0X0X0X0X0X0X0X0X0X0X0X0X0X0X0X0X",
"0X0X0X0X0X0X0X0X0X0X0X0X0X0X0X0X0X0X0X0X0X0X0X0X0X  F 9 9 8 d 8   F F 8 9 G 7   0X0X0X0X0X0X0X0X0X0X0X0X0X0X0X0X0X0X0X0X0X0X0X0X",
"0X0X0X0X0X0X0X0X0X0X0X0X0X0X0X0X0X0X0X0X0X0X0X0X0X  L P K K J F . G G J U J 8   0X0X0X0X0X0X0X0X0X0X0X0X0X0X0X0X0X0X0X0X0X0X0X0X",
"0X0X0X0X0X0X0X0X0X0X0X0X0X0X0X0X0X0X0X0X0X0X0X0X    T T U K H F . F G J ~ T K     0X0X0X0X0X0X0X0X0X0X0X0X0X0X0X0X0X0X0X0X0X0X0X",
"0X0X0X0X0X0X0X0X0X0X0X0X0X0X0X0X0X0X0X0X0X0X0X  T R R U J F G 8   8 G G U R R Y T   0X0X0X0X0X0X0X0X0X0X0X0X0X0X0X0X0X0X0X0X0X0X",
"0X0X0X0X0X0X0X0X0X0X0X0X0X0X0X0X0X0X0X0X0X0X0X  L U U J G G 8   0X  8 G L P P P L   0X0X0X0X0X0X0X0X0X0X0X0X0X0X0X0X0X0X0X0X0X0X",
"0X0X0X0X0X0X0X0X0X0X0X0X0X0X0X0X0X0X0X0X0X0X0X  K 8 8 d 8 8   0X0X0X  F 8 F 8 8 K   0X0X0X0X0X0X0X0X0X0X0X0X0X0X0X0X0X0X0X0X0X0X",
"0X0X0X0X0X0X0X0X0X0X0X0X0X0X0X0X0X0X0X0X0X0X0X0X            0X0X0X0X0X            0X0X0X0X0X0X0X0X0X0X0X0X0X0X0X0X0X0X0X0X0X0X0X",
"0X0X0X0X0X0X0X0X0X0X0X0X0X0X0X0X0X0X0X0X0X0X0X0X0X0X0X0X0X0X0X0X0X0X0X0X0X0X0X0X0X0X0X0X0X0X0X0X0X0X0X0X0X0X0X0X0X0X0X0X0X0X0X0X",
"0X0X0X0X0X0X0X0X0X0X0X0X0X0X0X0X0X0X0X0X0X0X0X0X0X0X0X0X0X0X0X0X0X0X0X0X0X0X0X0X0X0X0X0X0X0X0X0X0X0X0X0X0X0X0X0X0X0X0X0X0X0X0X0X",
"0X0X0X0X0X0X0X0X0X0X0X0X0X0X0X0X0X0X0X0X0X0X0X0X0X0X0X0X0X0X0X0X0X0X0X0X0X0X0X0X0X0X0X0X0X0X0X0X0X0X0X0X0X0X0X0X0X0X0X0X0X0X0X0X",
"0X0X0X0X0X0X0X0X0X0X0X0X0X0X0X0X0X0X0X0X0X0X0X0X0X0X0X0X0X0X0X0X0X0X0X0X0X0X0X0X0X0X0X0X0X0X0X0X0X0X0X0X0X0X0X0X0X0X0X0X0X0X0X0X",
"0X0X0X0X0X0X0X0X0X0X0X0X0X0X0X0X0X0X0X0X0X0X0X0X0X0X0X0X0X0X0X0X0X0X0X0X0X0X0X0X0X0X0X0X0X0X0X0X0X0X0X0X0X0X0X0X0X0X0X0X0X0X0X0X"
};
