/* XPM */
static char *c8775e9dbb2e4352c27399ef3b1813cbmTZOaJJqJpeUmlYV[] = {
/* columns rows colors chars-per-pixel */
"64 64 24 1 ",
"  c None",
". c #101410",
"X c #183000",
"o c #294D08",
"O c #423C42",
"+ c #4A4D4A",
"@ c #5A5D5A",
"# c #6B696B",
"$ c #A52400",
"% c #FF4D00",
"& c #C67131",
"* c #5A8239",
"= c #739A5A",
"- c #BD8A42",
"; c #94B67B",
": c #C69A4A",
"> c #CEAA5A",
", c #D6BE6B",
"< c #DECF7B",
"1 c #A5A2A5",
"2 c #EFDF8C",
"3 c #FFFFB5",
"4 c #C6BEC6",
"5 c #EFEBF7",
/* pixels */
"                                                                ",
"                                                                ",
"                                                                ",
"                                                                ",
"                                                                ",
"                                                                ",
"                            .......                             ",
"                          ............                          ",
"                         ..............                         ",
"                        ................                        ",
"                       ..................                       ",
"                       ..................                       ",
"                       .::.................                     ",
"                       .,-..OO..............                    ",
"               ..      .,-.O::O.......OO.....                   ",
"              .--.     .>-.O,<O......O&&.....                   ",
"              .--.     .>55>,,O.......OO.....                   ",
"              .--.     .>552,,>O.............                   ",
"              .----.   .>-.5<,,>O..OO.........                  ",
"                .--.   .<:.5<,,>-..--.........                  ",
"                .--.   .,-.5<<<,:-->-.  ........                ",
"                .--.   .,>5522<,>----   ........                ",
"                .--.   .>,<333<,,>>..    ..........             ",
"                .---..  .-,,<<<<>.....      ....                ",
"                 .--..   +*:>>>-+.oooo..                        ",
"                 .--..   .O****O.X****XX.                       ",
"                 .--..   $$$$$.##o===*o+#                       ",
"                 .--..  .$%%%%O44*++++*=5#                      ",
"                 .----..%$OOOO.44@5554O#5#                      ",
"                  .---.$$***44O4541111445#                      ",
"                  .---$$O*=*55+454####445#                      ",
"                  .---$%$*==55+44+4441.#5#                      ",
"                  ..XX$%$155#+#+#14441..+                       ",
"                 .&--*$%$#11@@#O#11441..                        ",
"                 .--&*$%$.OO##@O#11441..                        ",
"                 .-&..$%$O+@##OX#14441..                        ",
"                  ....$%$O+@OO;@#14441..                        ",
"                   ...$%$O+O*=;@O+@@@+..                        ",
"                    ..O%OOO*==;@O-----..                        ",
"                      .$#+O===;**-,,>:##                        ",
"                       O51O===;;=O--&@55O                       ",
"                       O51O===;;;=OOo@55O                       ",
"                       O51O===;;;=**o@55O                       ",
"                       O51O===;;;==**@55O                       ",
"                       O51O===;;;==**@55O                       ",
"                        +@*===;;;==**@55O                       ",
"                        .+*===;;;==**@55O                       ",
"                        .#;===;;;==**@55O                       ",
"                        .14;=;;;;===*@55O                       ",
"                         O#555;;;;554@55O                       ",
"                           ##145541##@55O                       ",
"                          .O.O4444O..@44O                       ",
"                         .O@O.....O.. ..                        ",
"                         ...@@@+++O..                           ",
"                         .O+@@+++OO..                           ",
"                         ..+++++OOO..                           ",
"                          .OOOOOOOO.                            ",
"                           ........                             ",
"                                                                ",
"                                                                ",
"                                                                ",
"                                                                ",
"                                                                ",
"                                                                "
};
