/* XPM */
static char *eb9be28de0174adad879c989f6608e675M5F42C9UFwVr64x[] = {
/* columns rows colors chars-per-pixel */
"81 98 31 1 ",
"  c #101410",
". c #183000",
"X c #294D08",
"o c #423C42",
"O c #4A4D4A",
"+ c #5A5D5A",
"@ c #6B696B",
"# c #A52400",
"$ c #FF4D00",
"% c #C67131",
"& c #5A8239",
"* c #739A5A",
"= c #948E42",
"- c #BD8A42",
"; c #94B67B",
": c #C69A4A",
"> c #CEAA5A",
", c #D6BE6B",
"< c #DECF7B",
"1 c #BEBA8C",
"2 c #A5A2A5",
"3 c #EFDF8C",
"4 c #FFFFB5",
"5 c #C6BEC6",
"6 c #EFEBF7",
"7 c #FBFBF8",
"8 c #FCFCFB",
"9 c #FDFDFB",
"0 c #FEFEFE",
"q c #FFFFFE",
"w c None",
/* pixels */
"wwwwwwwwwwwwwwwwwwwwwwwwwwwwwwwwwwwwwwwwwwwwwwwwwwwwwwwwwwwwwwwwwwwwwwwwwwwwwwwww",
"wwwwwwwwwwwwwwwwwwwwwwwwwwwwwwwwwwwwwwwwwwwwwwwwwwwwwwwwwwwwwwwwwwwwwwwwwwwwwwwww",
"wwwwwwwwwwwwwwwwwwwwwwwwwwwwwwwwwwwwwwwwwwwwwwwwwwwwwwwwwwwwwwwwwwwwwwwwwwwwwwwww",
"wwwwwwwwwwwwwwwwwwwwwwwwwwwwwwwwwwwwwwwwwwwwwwwwwwwwwwwwwwwwwwwwwwwwwwwwwwwwwwwww",
"wwwwwwwwwwwwwwwwwwwwwwwwwwwwwwwwwwwwwwwwwwwwwwwwwwwwwwwwwwwwwwwwwwwwwwwwwwwwwwwww",
"wwwwwwwwwwwwwwwwwwwwwwwwwwwwwwwwwwwwwwwwwwwwwwwwwwwwwwwwwwwwwwwwwwwwwwwwwwwwwwwww",
"wwwwwwwwwwwwwwwwwwwwwwwwwwwwwwwwwwwwwwwwwwwwwwwwwwwwwwwwwwwwwwwwwwwwwwwwwwwwwwwww",
"wwwwwwwwwwwwwwwwwwwwwwwwwww           wwwwwwwwwwwwwwwwwwwwwwwwwwwwwwwwwwwwwwwwwww",
"wwwwwwwwwwwwwwwwwwwwwwwwwww           wwwwwwwwwwwwwwwwwwwwwwwwwwwwwwwwwwwwwwwwwww",
"wwwwwwwwwwwwwwwwwwwwwww                   wwwwwwwwwwwwwwwwwwwwwwwwwwwwwwwwwwwwwww",
"wwwwwwwwwwwwwwwwwwwwwww                   wwwwwwwwwwwwwwwwwwwwwwwwwwwwwwwwwwwwwww",
"wwwwwwwwwwwwwwwwwwwww                        wwwwwwwwwwwwwwwwwwwwwwwwwwwwwwwwwwww",
"wwwwwwwwwwwwwwwwwwwww                        wwwwwwwwwwwwwwwwwwwwwwwwwwwwwwwwwwww",
"wwwwwwwwwwwwwwwwwww                            wwwwwwwwwwwwwwwwwwwwwwwwwwwwwwwwww",
"wwwwwwwwwwwwwwwwwww                            wwwwwwwwwwwwwwwwwwwwwwwwwwwwwwwwww",
"wwwwwwwwwwwwwwwwwww                            wwwwwwwwwwwwwwwwwwwwwwwwwwwwwwwwww",
"wwwwwwwwwwwwwwwwwww                            wwwwwwwwwwwwwwwwwwwwwwwwwwwwwwwwww",
"wwwwwwwwwwwwwwwwwww  <<                            wwwwwwwwwwwwwwwwwwwwwwwwwwwwww",
"wwwwwwwwwwwwwwwwwww  <<                            wwwwwwwwwwwwwwwwwwwwwwwwwwwwww",
"wwwwwwww  wwwwwwwww  <<    :::                       wwwwwwwwwwwwwwwwwwwwwwwwwwww",
"wwwwwwww  wwwwwwwww  <<    :::                       wwwwwwwwwwwwwwwwwwwwwwwwwwww",
"wwwwww  --  wwwwwww  ,,    <<<            %%%        wwwwwwwwwwwwwwwwwwwwwwwwwwww",
"wwwwww  --  wwwwwww  ,,    <<<            %%%        wwwwwwwwwwwwwwwwwwwwwwwwwwww",
"wwwwww  --  wwwwwww  ,,66,,,,,                       wwwwwwwwwwwwwwwwwwwwwwwwwwww",
"wwwwww  --  wwwwwww  ,,66,,,,,                       wwwwwwwwwwwwwwwwwwwwwwwwwwww",
"wwwwww  ----  wwwww  ,,  66,,,,,                      wwwwwwwwwwwwwwwwwwwwwwwwwww",
"wwwwww  ----  wwwww  ,,  66,,,,,                       wwwwwwwwwwwwwwwwwwwwwwwwww",
"wwwwwwww  --  wwwww  33  66,,,,,::    >>               wwwwwwwwwwwwwwwwwwwwwwwwww",
"wwwwwwww  --  wwwww  33  66,,,,,::    >>               wwwwwwwwwwwwwwwwwwwwwwwwww",
"wwwwwwww  --  wwwww  <<  66<<<<<,,  ::>>  www            wwwwwwwwwwwwwwwwwwwwwwww",
"wwwwwwww  --  wwwww  <<  66<<<<<,,  ::>>  www            wwwwwwwwwwwwwwwwwwwwwwww",
"wwwwwwww  --  wwwww  ,,<<44444<<,,,,    wwwwwww               wwwwwwwwwwwwwwwwwww",
"wwwwwwww  --  wwwww  ,,<<44444<<,,,,    wwwwwww               wwwwwwwwwwwwwwwwwww",
"wwwwwwww  ----   wwww  ,,,,<<<<<<<        wwwwwwwww      wwwwwwwwwwwwwwwwwwwwwwww",
"wwwwwwww  ----   wwww  ,,,,<<<<<<<        wwwwwwwww      wwwwwwwwwwwwwwwwwwwwwwww",
"wwwwwwwwww  --   wwwwww  :::::::    XXXXXX   wwwwwwwwwwwwwwwwwwwwwwwwwwwwwwwwwwww",
"wwwwwwwwww  --   wwwwww  :::::::    XXXXXX   wwwwwwwwwwwwwwwwwwwwwwwwwwwwwwwwwwww",
"wwwwwwwwww  --   wwwwww           ..******...  wwwwwwwwwwwwwwwwwwwwwwwwwwwwwwwwww",
"wwwwwwwwww  --   wwwwww           ..******...  wwwwwwwwwwwwwwwwwwwwwwwwwwwwwwwwww",
"wwwwwwwwww  --   wwww  $$$$$$$  66&&XXXXXX&&&66  wwwwwwwwwwwwwwwwwwwwwwwwwwwwwwww",
"wwwwwwwwww  --   wwww  $$$$$$$  66&&XXXXXX&&&66  wwwwwwwwwwwwwwwwwwwwwwwwwwwwwwww",
"wwwwwwwwww  -----    $$         66..666666...66  wwwwwwwwwwwwwwwwwwwwwwwwwwwwwwww",
"wwwwwwwwww  -----    $$         66..666666...66  wwwwwwwwwwwwwwwwwwwwwwwwwwwwwwww",
"wwwwwwwwwwww  ---  ##  **&&666  6666      66666  wwwwwwwwwwwwwwwwwwwwwwwwwwwwwwww",
"wwwwwwwwwwww  ---  ##  **&&666  6666      66666  wwwwwwwwwwwwwwwwwwwwwwwwwwwwwwww",
"wwwwwwwwwwww  ---  $$  &&&&666  66  555522   66  wwwwwwwwwwwwwwwwwwwwwwwwwwwwwwww",
"wwwwwwwwwwww  ---  $$  &&&&666  66  555522   66  wwwwwwwwwwwwwwwwwwwwwwwwwwwwwwww",
"wwwwwwwwwwww       $$  6666   @@  22555522     wwwwwwwwwwwwwwwwwwwwwwwwwwwwwwwwww",
"wwwwwwwwwwww       $$  6666   @@  22555522     wwwwwwwwwwwwwwwwwwwwwwwwwwwwwwwwww",
"wwwwwwwwww  -----  $$      @@@@@  22225555   wwwwwwwwwwwwwwwwwwwwwwwwwwwwwwwwwwww",
"wwwwwwwwww  -----  $$      @@@@@  22225555   wwwwwwwwwwwwwwwwwwwwwwwwwwwwwwwwwwww",
"wwwwwwwwww  --     $$  OO++@@@    22555522   wwwwwwwwwwwwwwwwwwwwwwwwwwwwwwwwwwww",
"wwwwwwwwww  --     $$  OO++@@@    22555522   wwwwwwwwwwwwwwwwwwwwwwwwwwwwwwwwwwww",
"wwwwwwwwwwww       $$  OO++   ;;  22555522   wwwwwwwwwwwwwwwwwwwwwwwwwwwwwwwwwwww",
"wwwwwwwwwwww       $$  OO++   ;;  22555522   wwwwwwwwwwwwwwwwwwwwwwwwwwwwwwwwwwww",
"wwwwwwwwwwwwww     $$  OO  ***;;             wwwwwwwwwwwwwwwwwwwwwwwwwwwwwwwwwwww",
"wwwwwwwwwwwwww     $$  OO  ***;;             wwwwwwwwwwwwwwwwwwwwwwwwwwwwwwwwwwww",
"wwwwwwwwwwwwwwwww  ##    *****;;  --<<,,>>   wwwwwwwwwwwwwwwwwwwwwwwwwwwwwwwwwwww",
"wwwwwwwwwwwwwwwww  ##    *****;;  --<<,,>>   wwwwwwwwwwwwwwwwwwwwwwwwwwwwwwwwwwww",
"wwwwwwwwwwwwwwwwwww  66  *****;;;;  ----  666  wwwwwwwwwwwwwwwwwwwwwwwwwwwwwwwwww",
"wwwwwwwwwwwwwwwwwww  66  *****;;;;  ----  666  wwwwwwwwwwwwwwwwwwwwwwwwwwwwwwwwww",
"wwwwwwwwwwwwwwwwwww  66  *****;;;;**      666  wwwwwwwwwwwwwwwwwwwwwwwwwwwwwwwwww",
"wwwwwwwwwwwwwwwwwww  66  *****;;;;**      666  wwwwwwwwwwwwwwwwwwwwwwwwwwwwwwwwww",
"wwwwwwwwwwwwwwwwwww  66  *****;;;;****&&  666  wwwwwwwwwwwwwwwwwwwwwwwwwwwwwwwwww",
"wwwwwwwwwwwwwwwwwww  66  *****;;;;****&&  666  wwwwwwwwwwwwwwwwwwwwwwwwwwwwwwwwww",
"wwwwwwwwwwwwwwwwwww  66  *****;;;;****&&  666  wwwwwwwwwwwwwwwwwwwwwwwwwwwwwwwwww",
"wwwwwwwwwwwwwwwwwww  66  *****;;;;****&&  666  wwwwwwwwwwwwwwwwwwwwwwwwwwwwwwwwww",
"wwwwwwwwwwwwwwwwwwwww  &&*****;;;;****&&  666  wwwwwwwwwwwwwwwwwwwwwwwwwwwwwwwwww",
"wwwwwwwwwwwwwwwwwwwww  &&*****;;;;****&&  666  wwwwwwwwwwwwwwwwwwwwwwwwwwwwwwwwww",
"wwwwwwwwwwwwwwwwwwwww  &&*****;;;;****&&  666  wwwwwwwwwwwwwwwwwwwwwwwwwwwwwwwwww",
"wwwwwwwwwwwwwwwwwwwww  &&*****;;;;****&&  666  wwwwwwwwwwwwwwwwwwwwwwwwwwwwwwwwww",
"wwwwwwwwwwwwwwwwwwwww  66*****;;;;****&&  666  wwwwwwwwwwwwwwwwwwwwwwwwwwwwwwwwww",
"wwwwwwwwwwwwwwwwwwwww  66*****;;;;****&&  666  wwwwwwwwwwwwwwwwwwwwwwwwwwwwwwwwww",
"wwwwwwwwwwwwwwwwwwwwwww  66666;;;;**6666  666  wwwwwwwwwwwwwwwwwwwwwwwwwwwwwwwwww",
"wwwwwwwwwwwwwwwwwwwwwww  66666;;;;**6666  666  wwwwwwwwwwwwwwwwwwwwwwwwwwwwwwwwww",
"wwwwwwwwwwwwwwwwwwwwwwwww     666666      666  wwwwwwwwwwwwwwwwwwwwwwwwwwwwwwwwww",
"wwwwwwwwwwwwwwwwwwwwwwwww     666666      666  wwwwwwwwwwwwwwwwwwwwwwwwwwwwwwwwww",
"wwwwwwwwwwwwwwwwwwwwwww  ++         oo  ww   wwwwwwwwwwwwwwwwwwwwwwwwwwwwwwwwwwww",
"wwwwwwwwwwwwwwwwwwwwwww  ++         oo  ww   wwwwwwwwwwwwwwwwwwwwwwwwwwwwwwwwwwww",
"wwwwwwwwwwwwwwwwwwwwwww    +++++OOOOoo  wwwwwwwwwwwwwwwwwwwwwwwwwwwwwwwwwwwwwwwww",
"wwwwwwwwwwwwwwwwwwwwwww    +++++OOOOoo  wwwwwwwwwwwwwwwwwwwwwwwwwwwwwwwwwwwwwwwww",
"wwwwwwwwwwwwwwwwwwwwwww  +++++OOOOoooo  wwwwwwwwwwwwwwwwwwwwwwwwwwwwwwwwwwwwwwwww",
"wwwwwwwwwwwwwwwwwwwwwww  +++++OOOOoooo  wwwwwwwwwwwwwwwwwwwwwwwwwwwwwwwwwwwwwwwww",
"wwwwwwwwwwwwwwwwwwwwwww  ooooooooooooo  wwwwwwwwwwwwwwwwwwwwwwwwwwwwwwwwwwwwwwwww",
"wwwwwwwwwwwwwwwwwwwwwww  ooooooooooooo  wwwwwwwwwwwwwwwwwwwwwwwwwwwwwwwwwwwwwwwww",
"wwwwwwwwwwwwwwwwwwwwwwwww             wwwwwwwwwwwwwwwwwwwwwwwwwwwwwwwwwwwwwwwwwww",
"wwwwwwwwwwwwwwwwwwwwwwwww             wwwwwwwwwwwwwwwwwwwwwwwwwwwwwwwwwwwwwwwwwww",
"wwwwwwwwwwwwwwwwwwwwwwwwwwwwwwwwwwwwwwwwwwwwwwwwwwwwwwwwwwwwwwwwwwwwwwwwwwwwwwwww",
"wwwwwwwwwwwwwwwwwwwwwwwwwwwwwwwwwwwwwwwwwwwwwwwwwwwwwwwwwwwwwwwwwwwwwwwwwwwwwwwww",
"wwwwwwwwwwwwwwwwwwwwwwwwwwwwwwwwwwwwwwwwwwwwwwwwwwwwwwwwwwwwwwwwwwwwwwwwwwwwwwwww",
"wwwwwwwwwwwwwwwwwwwwwwwwwwwwwwwwwwwwwwwwwwwwwwwwwwwwwwwwwwwwwwwwwwwwwwwwwwwwwwwww",
"wwwwwwwwwwwwwwwwwwwwwwwwwwwwwwwwwwwwwwwwwwwwwwwwwwwwwwwwwwwwwwwwwwwwwwwwwwwwwwwww",
"wwwwwwwwwwwwwwwwwwwwwwwwwwwwwwwwwwwwwwwwwwwwwwwwwwwwwwwwwwwwwwwwwwwwwwwwwwwwwwwww",
"wwwwwwwwwwwwwwwwwwwwwwwwwwwwwwwwwwwwwwwwwwwwwwwwwwwwwwwwwwwwwwwwwwwwwwwwwwwwwwwww",
"wwwwwwwwwwwwwwwwwwwwwwwwwwwwwwwwwwwwwwwwwwwwwwwwwwwwwwwwwwwwwwwwwwwwwwwwwwwwwwwww",
"wwwwwwwwwwwwwwwwwwwwwwwwwwwwwwwwwwwwwwwwwwwwwwwwwwwwwwwwwwwwwwwwwwwwwwwwwwwwwwwww",
"wwwwwwwwwwwwwwwwwwwwwwwwwwwwwwwwwwwwwwwwwwwwwwwwwwwwwwwwwwwwwwwwwwwwwwwwwwwwwwwww",
"wwwwwwwwwwwwwwwwwwwwwwwwwwwwwwwwwwwwwwwwwwwwwwwwwwwwwwwwwwwwwwwwwwwwwwwwwwwwwwwww"
};
